<svg width="822" height="997" viewBox="0 0 822 997" fill="none" xmlns="http://www.w3.org/2000/svg">
<g filter="url(#filter0_d_1_4)">
<path d="M168.5 -38.8706L841.151 -13.4388C843.3 -13.3576 845 -11.592 845 -9.4417V867.21C845 867.703 844.753 868.164 844.341 868.435L829.544 878.22C770.82 917.05 691.648 899.972 654.152 840.387V840.387C618.629 783.938 531.262 811.93 535.158 878.512L536.379 899.375C542.308 1000.71 396.696 1023.45 371.447 925.131L341.223 807.436C332.665 774.114 341.568 738.725 364.875 713.418V713.418C467.825 601.636 437.792 422.785 303.976 350.762L192 290.493L88.4274 240.758C-61.2336 168.891 3.48364 -57.1134 168.5 -38.8706V-38.8706Z" fill="url(#paint0_linear_1_4)" shape-rendering="crispEdges"/>
<path d="M168.5 -38.8706L841.151 -13.4388C843.3 -13.3576 845 -11.592 845 -9.4417V867.21C845 867.703 844.753 868.164 844.341 868.435L829.544 878.22C770.82 917.05 691.648 899.972 654.152 840.387V840.387C618.629 783.938 531.262 811.93 535.158 878.512L536.379 899.375C542.308 1000.71 396.696 1023.45 371.447 925.131L341.223 807.436C332.665 774.114 341.568 738.725 364.875 713.418V713.418C467.825 601.636 437.792 422.785 303.976 350.762L192 290.493L88.4274 240.758C-61.2336 168.891 3.48364 -57.1134 168.5 -38.8706V-38.8706Z" fill="black" fill-opacity="0.2" shape-rendering="crispEdges"/>
</g>
<defs>
<filter id="filter0_d_1_4" x="0.377594" y="-39.9142" width="848.622" height="1036.13" filterUnits="userSpaceOnUse" color-interpolation-filters="sRGB">
<feFlood flood-opacity="0" result="BackgroundImageFix"/>
<feColorMatrix in="SourceAlpha" type="matrix" values="0 0 0 0 0 0 0 0 0 0 0 0 0 0 0 0 0 0 127 0" result="hardAlpha"/>
<feOffset dy="4"/>
<feGaussianBlur stdDeviation="2"/>
<feComposite in2="hardAlpha" operator="out"/>
<feColorMatrix type="matrix" values="0 0 0 0 0 0 0 0 0 0 0 0 0 0 0 0 0 0 0.25 0"/>
<feBlend mode="normal" in2="BackgroundImageFix" result="effect1_dropShadow_1_4"/>
<feBlend mode="normal" in="SourceGraphic" in2="effect1_dropShadow_1_4" result="shape"/>
</filter>
<linearGradient id="paint0_linear_1_4" x1="507" y1="-39.3194" x2="492.1" y2="1265.61" gradientUnits="userSpaceOnUse">
<stop offset="0.129016" stop-color="#506248"/>
<stop offset="0.5" stop-color="#9EAA12" stop-opacity="0.53"/>
<stop offset="0.825" stop-color="#506248"/>
</linearGradient>
</defs>
</svg>
