<svg width="1512" height="997" viewBox="0 0 1512 997" fill="none" xmlns="http://www.w3.org/2000/svg">
<g filter="url(#filter0_d_21_4)">
<path d="M858.5 -38.8706L1531.15 -13.4388C1533.3 -13.3576 1535 -11.592 1535 -9.4417V867.21C1535 867.703 1534.75 868.164 1534.34 868.435L1519.54 878.22C1460.82 917.05 1381.65 899.972 1344.15 840.387V840.387C1308.63 783.938 1221.26 811.93 1225.16 878.512L1226.38 899.375C1232.31 1000.71 1086.7 1023.45 1061.45 925.131L1031.22 807.436C1022.67 774.114 1031.57 738.725 1054.88 713.418V713.418C1157.82 601.636 1127.79 422.785 993.976 350.762L882 290.493L778.427 240.758C628.766 168.891 693.484 -57.1134 858.5 -38.8706V-38.8706Z" fill="url(#paint0_linear_21_4)" shape-rendering="crispEdges"/>
<path d="M858.5 -38.8706L1531.15 -13.4388C1533.3 -13.3576 1535 -11.592 1535 -9.4417V867.21C1535 867.703 1534.75 868.164 1534.34 868.435L1519.54 878.22C1460.82 917.05 1381.65 899.972 1344.15 840.387V840.387C1308.63 783.938 1221.26 811.93 1225.16 878.512L1226.38 899.375C1232.31 1000.71 1086.7 1023.45 1061.45 925.131L1031.22 807.436C1022.67 774.114 1031.57 738.725 1054.88 713.418V713.418C1157.82 601.636 1127.79 422.785 993.976 350.762L882 290.493L778.427 240.758C628.766 168.891 693.484 -57.1134 858.5 -38.8706V-38.8706Z" fill="black" fill-opacity="0.2" shape-rendering="crispEdges"/>
</g>
<g filter="url(#filter1_b_21_4)">
<rect x="-3" y="565" width="1515" height="303" fill="white"/>
</g>
<g filter="url(#filter2_f_21_4)">
<path d="M612.5 613.5C612.5 620.956 576.823 631 547 631C517.177 631 474 623.456 474 616C474 608.544 517.177 604 547 604C576.823 604 612.5 606.044 612.5 613.5Z" fill="url(#paint1_radial_21_4)" fill-opacity="0.57"/>
</g>
<path d="M527.492 535.114L520.988 534.632C521.024 534.162 524.328 487.036 512.36 440.432C500.476 394.166 470.03 361.973 469.724 361.653L474.432 357.141C475.728 358.493 506.35 390.826 518.674 438.81C530.916 486.484 527.528 534.632 527.492 535.114Z" fill="#3F4F21"/>
<path d="M550.746 527.936L545.05 524.766C544.822 525.172 544.772 525.492 544.77 525.506C545.298 522.088 542.498 483.45 534.212 437.874C525.986 392.624 503.704 317.305 503.48 316.549L509.73 314.693C509.954 315.453 532.338 391.106 540.626 436.708C548.064 477.622 552.786 524.274 550.746 527.936Z" fill="#3F4F21"/>
<path d="M561.586 531.546L555.066 531.45C555.068 531.274 555.358 513.262 558.3 472.688C561.26 431.886 583.456 351.417 584.398 348.011L590.682 349.751C590.452 350.579 567.716 433.004 564.804 473.16C561.878 513.506 561.588 531.37 561.586 531.546Z" fill="#3F4F21"/>
<path d="M577.172 533.428L570.804 532.024C570.83 531.908 573.462 519.932 578.772 492.686C584.312 464.26 608.91 443.464 609.956 442.592L614.132 447.598C613.896 447.798 590.262 467.818 585.172 493.934C579.842 521.274 577.2 533.308 577.172 533.428Z" fill="#3F4F21"/>
<path d="M510.074 401.754C510.074 401.754 489.378 379.108 462.628 405.094C435.88 431.084 447.762 491.97 465.026 507.562C465.026 507.562 468.18 484.878 489.156 483.504C510.132 482.13 534.62 473.544 549.478 450.086C564.336 426.628 557.654 402.778 540.39 396.882C523.126 390.988 510.074 401.754 510.074 401.754Z" fill="#93AF45"/>
<path d="M505.122 409.922C505.122 409.922 471.152 432.198 462.798 477.12C462.798 477.12 457.6 425.886 505.122 409.922Z" fill="#606D29"/>
<path d="M608.448 426.628C608.448 426.628 578.632 423.988 579.744 452.966C580.858 481.946 621.152 474.668 629.406 483.504C637.66 492.34 641.942 497.538 641.942 497.538C641.942 497.538 662.536 477.698 649.542 437.29C636.548 396.882 608.75 414.562 608.448 426.628Z" fill="#606D29"/>
<path d="M616.87 434.796C616.87 434.796 640.26 454.844 641.746 477.12C641.746 477.12 645.828 441.85 616.87 434.796Z" fill="#3F4F21"/>
<path d="M641.942 274.783C641.942 274.783 585.87 279.795 567.492 312.651C549.116 345.507 562.11 365.185 573.988 362.215L585.87 359.243C585.87 359.243 590.002 377.806 610.862 373.166C631.722 368.526 641.744 344.995 639.888 329.751C638.032 314.507 623.762 288.333 641.942 274.783Z" fill="#606D29"/>
<path d="M616.87 296.316C616.87 296.316 592.182 317.478 585.684 343.466C585.684 343.466 576.96 319.148 616.87 296.316Z" fill="#3F4F21"/>
<path d="M482.702 369.916C482.702 369.916 483.032 387.832 457.6 387.646C432.168 387.46 423.63 359.832 412.308 357.126C400.984 354.418 393 355.718 393 355.718C393 355.718 405.398 327.316 446.906 331.586C488.414 335.856 502.792 358.124 482.702 369.916Z" fill="#606D29"/>
<path d="M426.414 350.148C426.414 350.148 453.702 352.004 474.678 365.37C474.678 365.37 465.954 343.466 426.414 350.148Z" fill="#3F4F21"/>
<path d="M577.144 348.881C577.144 348.881 547.086 338.615 545.588 368.566C544.09 398.518 569.654 396.37 600.872 400.268C632.092 404.166 643.228 428.448 643.228 428.448C643.228 428.448 658.45 394.884 648.054 365.371C637.66 335.855 583.27 311.229 577.144 348.881Z" fill="#93AF45"/>
<path d="M587.542 355.717C587.542 355.717 623.368 361.753 636.548 396.884C636.548 396.884 635.992 356.089 587.542 355.717Z" fill="#606D29"/>
<path d="M417.504 279.609C417.504 279.609 433.096 281.095 439.408 302.999C445.718 324.903 455.576 352.933 483.876 354.233C512.174 355.531 519.688 351.819 525.028 339.753L530.368 327.687C530.368 327.687 545.96 323.789 547.816 303.369C549.672 282.951 520.156 256.405 479.876 258.075C439.594 259.747 417.504 279.609 417.504 279.609Z" fill="#93AF45"/>
<path d="M448.69 282.208C448.69 282.208 496.212 287.778 519.972 319.706C519.972 319.706 505.308 276.64 448.69 282.208Z" fill="#606D29"/>
<path d="M534.264 561.58L557.654 545.616C534.564 540.772 510.996 544.714 492.4 550.304C493.004 553.66 493.644 557.114 494.312 560.59C516.748 555.626 534.264 561.58 534.264 561.58Z" fill="#D87C48"/>
<path d="M563.594 539.304C578.55 528.112 596.642 523.216 610.862 521.102C611.346 520.088 611.37 520.372 610.374 519.466C608.33 517.608 590.138 509.98 549.858 510.346C524.428 510.576 489.156 514.616 487.858 517.772C487.408 518.86 488.772 529.108 491.014 542.366C536.118 526.432 563.594 539.304 563.594 539.304Z" fill="#D87C48"/>
<path d="M602.718 561.048C605.506 548.158 607.8 536.474 608.448 531.498C597.738 533.466 585.014 537.168 573.99 544.132C573.99 544.132 585.552 552.466 602.718 561.048Z" fill="#D87C48"/>
<path d="M528.696 577.174C518.858 584.654 509.804 591.922 502.734 597.726C504.308 603.144 505.77 607.014 506.978 608.36C513.476 615.598 536.678 616.34 549.858 616.898C563.038 617.456 586.798 613.928 589.954 610.216C591.684 608.18 596.55 588.744 600.88 569.392C582.184 559.584 566.194 548.958 566.194 548.958C566.194 548.958 551.156 560.096 528.696 577.174Z" fill="#D87C48"/>
<path d="M573.988 544.132C585.014 537.168 597.736 533.468 608.446 531.5C609.338 524.662 610.352 522.168 610.862 521.104C596.642 523.216 578.548 528.112 563.594 539.304C563.594 539.304 536.116 526.434 491.014 542.368C491.446 544.916 491.91 547.58 492.4 550.306C510.996 544.716 534.564 540.774 557.654 545.616L534.264 561.582C534.264 561.582 516.748 555.628 494.312 560.592C494.83 563.284 495.362 565.984 495.908 568.664C504.034 566.978 514.172 566.458 524.24 570.12L500.662 589.976C501.362 592.788 502.058 595.408 502.732 597.726C509.802 591.922 518.858 584.654 528.696 577.174C551.156 560.096 566.194 548.958 566.194 548.958C566.194 548.958 582.184 559.584 600.878 569.392C601.506 566.59 602.122 563.794 602.716 561.048C585.55 552.466 573.988 544.132 573.988 544.132Z" fill="#59332B"/>
<path d="M495.908 568.662C497.452 576.262 499.078 583.64 500.662 589.974L524.24 570.118C514.172 566.456 504.034 566.978 495.908 568.662Z" fill="#D87C48"/>
<g filter="url(#filter3_f_21_4)">
<path d="M800 616C800 623.456 768.661 635 734.27 635C699.879 635 672 628.956 672 621.5C672 614.044 699.879 608 734.27 608C768.661 608 800 608.544 800 616Z" fill="url(#paint2_radial_21_4)" fill-opacity="0.57"/>
</g>
<path d="M773.905 476.607C773.905 476.607 802.269 461.943 835.329 451.733C868.391 441.523 888.253 415.535 888.253 415.535C888.253 415.535 852.797 407.739 821.797 422.033C790.797 436.325 759.427 468.515 759.427 468.515L773.905 476.607Z" fill="#3F4F21"/>
<path d="M742.349 292.091C747.861 291.493 757.157 267.769 763.109 245.083C756.965 216.193 750.777 197.041 748.659 187.025C745.877 173.845 749.031 149.899 745.691 148.043C742.973 146.533 725.157 185.047 719.095 231.633C726.831 259.155 737.307 292.639 742.349 292.091Z" fill="#3F4F21"/>
<path d="M768.789 275.387C766.987 264.287 765.049 254.211 763.107 245.085C757.157 267.769 747.859 291.495 742.347 292.093C737.307 292.641 726.831 259.157 719.093 231.633C717.701 242.333 716.929 253.455 717.101 264.619C718.031 324.393 739.233 411.265 739.233 411.265L748.659 407.183C748.659 407.183 776.297 321.607 768.789 275.387Z" fill="#283018"/>
<path d="M648.049 450.249C649.719 447.281 640.253 441.153 622.061 422.035C612.475 411.959 601.655 400.033 593.561 390.999C571.855 387.653 553.401 385.965 553.007 386.745C552.263 388.211 612.407 440.597 630.971 450.993C632.007 451.571 633.125 452.169 634.295 452.775C641.413 452.207 647.405 451.393 648.049 450.249Z" fill="#7B8E36"/>
<path d="M719.701 472.153C719.701 472.153 713.947 455.447 707.821 438.741C701.695 422.033 678.307 413.681 648.237 403.101C634.181 398.153 612.617 393.939 593.561 390.999C601.655 400.031 612.475 411.959 622.061 422.033C640.251 441.153 649.719 447.279 648.049 450.249C647.405 451.393 641.413 452.205 634.295 452.775C654.131 463.039 691.857 476.609 691.857 476.609L719.701 472.153Z" fill="#606D29"/>
<path d="M800.635 415.535C797.437 414.061 813.629 374.705 824.923 348.305C809.399 359.903 793.687 373.649 780.589 388.619C755.899 416.835 748.659 471.409 748.659 471.409L761.653 476.607C761.653 476.607 767.143 468.685 774.647 458.787C781.761 449.403 819.599 429.609 843.599 408.437C825.093 412.463 803.349 416.789 800.635 415.535Z" fill="#606D29"/>
<path d="M899.019 305.457C899.763 300.075 888.253 310.097 863.749 323.279C852.249 329.465 838.659 338.047 824.923 348.305C813.631 374.705 797.439 414.061 800.637 415.535C803.351 416.789 825.093 412.463 843.601 408.437C844.911 407.279 846.193 406.119 847.415 404.955C870.989 382.495 898.277 310.841 899.019 305.457Z" fill="#7B8E36"/>
<path d="M716.731 380.825C718.261 380.963 722.087 347.103 723.125 322.315C697.135 262.807 654.363 213.401 655.473 217.841C656.587 222.297 677.749 285.411 676.265 313.255C676.075 316.781 675.919 320.615 675.817 324.669C682.513 338.337 691.533 355.121 698.911 363.003C712.461 377.483 714.689 380.639 716.731 380.825Z" fill="#7B8E36"/>
<path d="M723.389 322.907C723.303 322.709 723.213 322.515 723.125 322.315C722.087 347.103 718.263 380.963 716.731 380.825C714.689 380.639 712.463 377.483 698.911 363.003C691.535 355.121 682.513 338.337 675.819 324.669C675.131 352.651 677.219 391.295 691.485 413.415C707.821 438.741 719.701 472.153 719.701 472.153L740.855 474.073C740.855 474.073 749.351 382.681 723.389 322.907Z" fill="#606D29"/>
<path d="M728.239 474.009C728.239 474.009 732.139 424.073 678.119 379.337C624.101 334.601 569.527 292.277 565.257 295.061C560.987 297.847 570.269 352.477 602.383 384.469C634.497 416.465 686.101 422.637 700.023 441.825C713.947 461.015 714.873 478.555 714.873 478.555L728.239 474.009Z" fill="#3F4F21"/>
<path d="M735.665 473.267C735.665 473.267 721.929 408.111 745.319 352.977C768.707 297.847 775.947 285.039 776.875 257.193C777.803 229.349 777.061 214.499 779.473 214.499C781.887 214.499 799.893 235.103 802.121 302.117C804.349 369.129 775.015 430.471 766.889 449.135C758.765 467.799 757.199 476.607 757.199 476.607L735.665 473.267Z" fill="#93AF45"/>
<path d="M682.301 564.127C685.647 588.633 689.153 609.017 691.601 611.747C698.099 618.987 721.303 619.729 734.483 620.285C747.663 620.841 771.423 617.315 774.579 613.603C775.963 611.973 779.359 589.315 782.883 563.269C742.393 572.331 705.301 568.545 682.301 564.127Z" fill="#59332B"/>
<path d="M792.809 485.719C792.915 484.887 793.005 484.181 793.073 483.651C794.813 470.295 797.039 473.475 794.999 471.617C792.955 469.761 774.765 462.133 734.483 462.499C709.053 462.731 673.781 466.767 672.483 469.925C672.219 470.563 672.581 476.461 673.377 485.521C700.771 482.047 745.945 478.755 792.809 485.719Z" fill="#59332B"/>
<path d="M673.377 485.521C675.033 504.337 678.569 536.795 682.301 564.127C705.301 568.545 742.393 572.329 782.883 563.269C787.069 532.331 791.427 496.633 792.809 485.719C745.945 478.753 700.771 482.047 673.377 485.521Z" fill="#D87C48"/>
<g filter="url(#filter4_f_21_4)">
<path d="M1229.5 607.883C1229.5 615.339 1193.82 625.383 1164 625.383C1134.18 625.383 1091 617.839 1091 610.383C1091 602.928 1134.18 598.383 1164 598.383C1193.82 598.383 1229.5 600.428 1229.5 607.883Z" fill="url(#paint3_radial_21_4)" fill-opacity="0.57"/>
</g>
<path d="M1168.82 474.522C1169.2 472.492 1169.66 470.338 1170.2 468.068C1202.7 443.976 1220.51 423.278 1221.25 422.398L1216.29 418.168C1216.13 418.364 1200.58 436.408 1172.76 457.946C1172.99 457.056 1173.22 456.168 1173.47 455.254C1178.42 436.54 1184.57 413.266 1182.08 391.564C1182.08 389.92 1182.52 357.7 1209.01 346.846L1206.54 340.812C1189.68 347.718 1182 361.558 1178.49 373.078C1170.05 339.514 1151.2 296.05 1150.25 293.868L1144.27 296.472C1144.46 296.914 1157.95 328.022 1167.28 357.656C1144.1 338.532 1120.82 333.766 1119.72 333.552L1118.46 339.95C1118.74 340.004 1146.73 345.788 1170.83 369.644C1173.09 377.852 1174.81 385.588 1175.58 392.074C1177.39 407.404 1174.5 423.944 1170.91 438.936C1165.44 427.48 1154.49 423.228 1154.35 423.172L1152.05 429.276C1152.21 429.334 1167.24 435.196 1167.41 452.636C1167.33 452.952 1167.25 453.274 1167.16 453.586C1164.3 464.418 1161.82 473.774 1161.37 481.168C1161.26 482.89 1161.18 484.636 1161.12 486.386C1154.19 480.502 1144.03 478.312 1143.4 478.176L1142.06 484.562C1142.25 484.6 1160.61 488.74 1161.01 498.656C1161.19 512.326 1162.23 523.892 1162.3 524.568L1168.79 523.972C1168.77 523.756 1166.97 503.774 1167.68 485.532C1188.59 459.462 1218.53 458.48 1218.84 458.474L1218.71 451.954C1217.47 451.978 1190.84 452.764 1168.82 474.522Z" fill="#283018"/>
<path d="M1150 482.702C1150.72 490.15 1135.52 480.752 1119.09 488.55C1102.66 496.346 1092.92 504.56 1091.8 501.636C1090.69 498.712 1091.25 469.336 1113.52 462.096C1135.8 454.858 1149.16 474.072 1150 482.702Z" fill="#3F4F21"/>
<path d="M1135.52 340.972C1136.24 348.42 1121.04 339.022 1104.61 346.82C1088.18 354.616 1078.44 362.83 1077.32 359.908C1076.21 356.984 1076.77 327.606 1099.04 320.368C1121.32 313.128 1134.68 332.342 1135.52 340.972Z" fill="#3F4F21"/>
<path d="M1213.08 421.548C1214.47 428.898 1226.27 415.688 1244.02 418.65C1261.78 421.612 1273.31 426.818 1273.56 423.702C1273.8 420.588 1265.08 392.53 1241.93 391.714C1218.78 390.898 1211.46 413.028 1213.08 421.548Z" fill="#3F4F21"/>
<path d="M1190.33 541.164C1170.28 541.362 1170.83 552.478 1156.54 552.292C1142.25 552.108 1136.87 546.722 1118.3 544.496C1111.4 543.668 1104.56 545.308 1098.68 547.694C1103.57 569.688 1111.54 599.45 1115.39 602.576C1121.33 607.402 1148.62 616.684 1168.11 616.684C1187.6 616.684 1212.85 610.556 1216 605.916C1217.86 603.184 1225.19 575.874 1230.56 552.986C1228.62 553.376 1226.7 553.658 1224.85 553.778C1207.59 554.89 1210.37 540.968 1190.33 541.164Z" fill="#D87C48"/>
<path d="M1118.3 532.404C1136.86 534.63 1142.25 540.014 1156.54 540.198C1170.83 540.384 1170.28 529.27 1190.33 529.072C1210.37 528.876 1207.59 542.798 1224.85 541.686C1227.61 541.508 1230.51 540.984 1233.44 540.238C1235.6 530.192 1236.92 522.67 1236.42 521.376C1234.75 517 1195.61 506.79 1168.11 506.79C1127.46 506.79 1095.53 519.042 1094.6 524.24C1094.38 525.452 1095.09 530.13 1096.35 536.614C1102.71 533.71 1110.47 531.462 1118.3 532.404Z" fill="#D87C48"/>
<path d="M1224.85 541.686C1207.59 542.8 1210.37 528.878 1190.33 529.072C1170.28 529.27 1170.83 540.386 1156.54 540.2C1142.25 540.014 1136.87 534.632 1118.3 532.404C1110.47 531.464 1102.72 533.712 1096.35 536.616C1097 539.91 1097.79 543.664 1098.68 547.694C1104.56 545.31 1111.4 543.668 1118.3 544.496C1136.87 546.724 1142.25 552.108 1156.54 552.294C1170.83 552.478 1170.28 541.362 1190.33 541.164C1210.37 540.97 1207.59 554.892 1224.85 553.778C1226.7 553.658 1228.62 553.378 1230.56 552.986C1231.62 548.486 1232.59 544.176 1233.44 540.238C1230.51 540.984 1227.61 541.508 1224.85 541.686Z" fill="#59332B"/>
<path d="M1252.98 379.12C1252.98 379.12 1252.75 369.932 1236.52 368.82C1220.3 367.704 1202.35 353.47 1204.29 342.21C1206.24 330.95 1224.76 322.876 1246.34 332.9C1267.92 342.922 1258.08 372.994 1252.98 379.12Z" fill="#606D29"/>
<path d="M1250.24 363.528C1250.24 363.528 1239.38 345.29 1218.77 343.202C1218.77 343.202 1238.68 335.404 1250.24 363.528Z" fill="#3F4F21"/>
<path d="M1089.85 466.172C1089.85 466.172 1087.77 454.022 1114.91 450.96C1142.06 447.896 1159.74 442.606 1161.14 425.62C1162.53 408.634 1136.35 393.6 1113.24 402.788C1090.13 411.976 1083.87 452.01 1089.85 466.172Z" fill="#606D29"/>
<path d="M1138.3 420.608C1138.3 420.608 1111.43 423.254 1099.88 442.884C1099.88 442.884 1107.4 410.584 1138.3 420.608Z" fill="#3F4F21"/>
<path d="M1285.88 491.89C1285.88 491.89 1271.39 481.03 1259.7 486.042C1248.01 491.054 1221 487.234 1214.6 466.172C1208.19 445.11 1229.63 437.818 1257.2 445.362C1284.76 452.908 1285.88 491.89 1285.88 491.89Z" fill="#606D29"/>
<path d="M1233.44 455.414C1233.44 455.414 1261.51 463.21 1272.51 477.132C1272.51 477.132 1263.7 452.768 1233.44 455.414Z" fill="#3F4F21"/>
<path d="M1113.52 236C1113.52 236 1122.01 250.06 1119.09 263.844C1116.17 277.626 1115.61 300.458 1131.34 311.736C1147.07 323.014 1156.12 323.152 1159.74 320.926C1163.36 318.698 1179.37 300.458 1167.82 274.704C1156.26 248.948 1113.52 236 1113.52 236Z" fill="#606D29"/>
<path d="M1132.45 260.782C1132.45 260.782 1149.44 287.094 1151.39 301.156C1151.39 301.156 1155.15 277.628 1132.45 260.782Z" fill="#3F4F21"/>
<g filter="url(#filter5_f_21_4)">
<path d="M426 615C426 622.456 396.375 634 363.865 634C331.355 634 305 627.956 305 620.5C305 613.044 331.355 607 363.865 607C396.375 607 426 607.544 426 615Z" fill="url(#paint4_radial_21_4)" fill-opacity="0.57"/>
</g>
<path d="M343.512 376.919C343.512 376.919 360.584 405.529 370.93 450.619C381.276 495.707 381.512 528.801 381.512 528.801C381.512 528.801 388.7 476.987 394.68 448.315L400.664 419.641L404.904 423.359C404.904 423.359 390.98 501.199 390.212 519.429L389.444 537.659L374.208 538.211C374.208 538.211 371.438 455.549 351.762 413.257L332.086 370.963L343.512 376.919Z" fill="#3F4F21"/>
<path d="M317.39 413.117C326.16 411.777 332.604 393.917 323.29 387.561C313.976 381.203 279.48 396.193 280.33 401.195C281.104 405.747 308.62 414.457 317.39 413.117ZM314.5 376.781C313.494 372.511 294.62 372.359 296.164 378.605C297.12 382.479 315.504 381.053 314.5 376.781ZM343.512 381.885C320.996 327.811 265.898 310.711 265.898 310.711C307.652 331.793 343.512 381.885 343.512 381.885ZM299.696 361.923C303.408 353.695 295.578 349.531 288.816 348.643C282.054 347.753 269.734 351.135 270.348 355.147C271.254 361.083 295.984 370.151 299.696 361.923ZM283.47 337.315C284.302 334.417 267.814 326.801 266.774 333.459C265.736 340.117 281.79 343.151 283.47 337.315ZM319.87 331.643C328.604 329.387 311.56 296.831 307.314 304.445C303.068 312.061 306.208 335.173 319.87 331.643ZM338.762 319.123C333.818 321.851 327.626 343.643 335.752 346.527C341.256 348.481 343.704 316.395 338.762 319.123ZM361.99 319.103C356.856 324.817 335.502 355.507 349.63 362.577C357.374 366.455 372.922 357.969 370.72 341.645C368.516 325.323 367.124 313.391 361.99 319.103ZM248.516 356.497C253.53 324.007 248.118 297.875 248.118 297.875C248.118 297.875 283.684 285.375 316.294 290.045C348.902 294.715 392.088 316.631 390.15 358.075C388.212 399.517 349.092 387.585 349.092 387.585C347.296 434.575 318.882 431.801 297.502 428.515C276.124 425.231 243.502 388.991 248.516 356.497Z" fill="#606D29"/>
<path d="M265.899 310.711C307.653 331.793 343.513 381.885 343.513 381.885C320.997 327.811 265.899 310.711 265.899 310.711Z" fill="#3F4F21"/>
<path d="M394.358 354.989C391.358 358.707 380.366 371.637 379.396 364.041C378.426 356.445 397.36 351.273 394.358 354.989ZM386.066 340.443C384.892 330.907 418.952 331.875 412.348 335.271C405.742 338.665 387.238 349.979 386.066 340.443ZM413.198 322.017C412.74 316.007 441.786 318.137 438.23 322.017C434.674 325.895 413.704 328.643 413.198 322.017ZM366.914 360.073C369.698 379.557 380.858 393.135 380.858 393.135C380.858 393.135 370.888 417.863 370.374 439.037H375.518C375.518 439.037 376.12 382.749 412.348 353.757C448.574 324.765 483.164 322.143 483.164 322.143C483.164 322.143 451.442 300.359 412.348 311.673C373.254 322.987 364.132 340.591 366.914 360.073Z" fill="#3F4F21"/>
<path d="M374.838 564.583L351.448 548.621C374.538 543.777 398.106 547.717 416.702 553.309C416.098 556.663 415.458 560.117 414.79 563.595C392.354 558.629 374.838 564.583 374.838 564.583Z" fill="#BA462B"/>
<path d="M345.508 542.307C330.552 531.113 312.46 526.217 298.242 524.105C297.758 523.091 297.732 523.373 298.73 522.469C300.772 520.611 318.964 512.983 359.246 513.349C384.674 513.581 419.946 517.619 421.246 520.773C421.694 521.861 420.332 532.111 418.088 545.369C372.984 529.435 345.508 542.307 345.508 542.307Z" fill="#BA462B"/>
<path d="M306.385 564.051C303.597 551.161 301.301 539.477 300.653 534.501C311.365 536.469 324.087 540.171 335.113 547.133C335.113 547.133 323.551 555.469 306.385 564.051Z" fill="#BA462B"/>
<path d="M380.406 580.177C390.244 587.657 399.3 594.923 406.37 600.729C404.796 606.147 403.332 610.017 402.124 611.363C395.628 618.603 372.424 619.345 359.244 619.901C346.066 620.459 322.304 616.931 319.148 613.219C317.418 611.183 312.554 591.747 308.222 572.395C326.918 562.587 342.908 551.961 342.908 551.961C342.908 551.961 357.946 563.099 380.406 580.177Z" fill="#BA462B"/>
<path d="M335.113 547.133C324.087 540.171 311.365 536.469 300.655 534.501C299.763 527.665 298.749 525.171 298.241 524.105C312.459 526.217 330.553 531.113 345.507 542.307C345.507 542.307 372.986 529.435 418.088 545.369C417.656 547.919 417.192 550.581 416.702 553.309C398.108 547.717 374.538 543.775 351.447 548.619L374.838 564.583C374.838 564.583 392.356 558.629 414.79 563.593C414.272 566.285 413.74 568.985 413.194 571.665C405.068 569.981 394.93 569.461 384.862 573.121L408.442 592.977C407.74 595.789 407.044 598.411 406.37 600.729C399.3 594.923 390.246 587.657 380.406 580.175C357.946 563.097 342.909 551.959 342.909 551.959C342.909 551.959 326.917 562.587 308.223 572.395C307.595 569.593 306.979 566.795 306.385 564.051C323.551 555.469 335.113 547.133 335.113 547.133Z" fill="#59332B"/>
<path d="M413.194 571.665C411.65 579.267 410.024 586.643 408.442 592.977L384.862 573.123C394.93 569.461 405.068 569.981 413.194 571.665Z" fill="#BA462B"/>
<path d="M363.652 475.125C359.034 477.079 336.983 446.839 341.025 436.333C345.065 425.829 363.652 428.089 366.884 436.333C370.116 444.579 367.854 473.347 363.652 475.125ZM338.439 464.781C332.781 467.691 328.739 449.263 332.619 447.325C336.499 445.385 341.947 462.977 338.439 464.781ZM279.927 509.545C279.927 509.545 284.131 452.011 331.085 417.909C331.085 417.909 290.919 464.117 279.927 509.545ZM321.629 495.213C317.911 496.711 311.931 485.471 311.283 478.681C310.637 471.893 312.901 463.327 321.629 465.091C330.357 466.857 327.131 492.993 321.629 495.213ZM301.587 503.573C294.959 504.057 298.619 486.279 301.587 486.439C307.567 486.763 308.213 503.087 301.587 503.573ZM264.721 470.599C256.465 468.175 283.959 444.245 288.065 452.247C294.487 464.765 272.977 473.023 264.721 470.599ZM298.839 433.423C297.871 441.991 275.565 440.859 271.847 436.659C268.129 432.455 299.495 427.621 298.839 433.423ZM286.393 400.451C301.587 394.633 313.187 407.873 311.181 416.291C307.523 431.647 273.301 417.747 266.673 414.029C260.047 410.311 271.199 406.271 286.393 400.451ZM386.088 452.247C384.502 430.677 380.862 402.369 335.325 411.189C335.325 411.189 338.109 370.389 297.865 377.825C257.623 385.257 246.147 432.267 248.895 465.091C251.643 497.917 271.539 529.757 271.539 529.757C271.539 529.757 295.445 518.603 327.771 516.179C360.096 513.755 387.676 473.817 386.088 452.247Z" fill="#7B8E36"/>
<path d="M279.927 509.545C290.919 464.117 331.085 417.909 331.085 417.909C284.131 452.011 279.927 509.545 279.927 509.545Z" fill="#606D29"/>
<path d="M366.192 450.921C369.424 442.677 388.012 440.413 392.052 450.921C396.094 461.427 374.042 491.665 369.424 489.713C365.222 487.933 362.958 459.163 366.192 450.921ZM400.458 461.911C404.336 463.851 400.296 482.277 394.64 479.367C391.13 477.561 396.578 459.971 400.458 461.911ZM401.992 432.493C448.944 466.599 453.15 524.129 453.15 524.129C442.158 478.705 401.992 432.493 401.992 432.493ZM411.448 479.679C420.176 477.913 422.44 486.479 421.792 493.267C421.146 500.055 415.166 511.297 411.448 509.797C405.946 507.579 402.72 481.443 411.448 479.679ZM431.49 501.027C434.458 500.865 438.118 518.643 431.49 518.159C424.864 517.673 425.51 501.349 431.49 501.027ZM445.014 466.833C449.118 458.831 476.612 482.761 468.356 485.187C460.1 487.611 438.592 479.353 445.014 466.833ZM461.232 451.243C457.514 455.447 435.206 456.577 434.236 448.011C433.58 442.209 464.948 447.041 461.232 451.243ZM466.402 428.615C459.776 432.333 425.556 446.233 421.896 430.879C419.89 422.459 431.49 409.219 446.684 415.039C461.878 420.857 473.03 424.897 466.402 428.615ZM405.306 530.767C437.632 533.191 461.536 544.343 461.536 544.343C461.536 544.343 481.436 512.501 484.182 479.679C486.93 446.855 475.454 399.845 435.212 392.409C394.968 384.973 397.752 425.775 397.752 425.775C352.211 416.955 348.573 445.263 346.985 466.833C345.399 488.403 372.98 528.341 405.306 530.767Z" fill="#93AF45"/>
<path d="M453.148 524.129C442.158 478.703 401.99 432.493 401.99 432.493C448.944 466.597 453.148 524.129 453.148 524.129Z" fill="#7B8E36"/>
<g filter="url(#filter6_f_21_4)">
<path d="M1036.73 610.057C1036.73 617.513 1004.39 631.625 970 631.625C935.609 631.625 907.73 620.756 907.73 613.3C907.73 605.845 935.609 599.8 970 599.8C1004.39 599.8 1036.73 602.601 1036.73 610.057Z" fill="url(#paint5_radial_21_4)" fill-opacity="0.57"/>
</g>
<path d="M905.753 455.114C910.549 497.406 926.069 526.598 926.069 526.598L941.765 526.426C939.229 509.688 935.791 483.082 934.411 454.418C923.765 457.278 913.927 456.828 905.753 455.114Z" fill="#3F4F21"/>
<path d="M934.411 454.42C933.851 442.816 933.627 430.876 933.939 419.114C934.883 383.572 943.781 362.414 950.925 351.03C922.875 355.75 905.277 377.342 904.381 426.986C904.203 436.842 904.749 446.26 905.753 455.116C913.929 456.83 923.765 457.28 934.411 454.42Z" fill="#606D29"/>
<path d="M934.411 454.42C940.601 452.756 947.055 449.994 953.617 445.678C966.021 437.518 977.201 425.874 986.595 413.998C986.961 381.334 981.431 362.194 976.379 351.58C972.481 350.548 968.333 350 963.947 350C959.391 350 955.047 350.336 950.925 351.03C943.781 362.414 934.883 383.572 933.939 419.114C933.627 430.876 933.851 442.816 934.411 454.42Z" fill="#7B8E36"/>
<path d="M986.595 413.998C977.201 425.874 966.021 437.518 953.617 445.678C947.055 449.994 940.601 452.756 934.411 454.42C935.793 483.082 939.229 509.688 941.767 526.426L977.647 526.032C979.963 506.618 983.493 472.712 986.083 428.46C986.383 423.366 986.545 418.554 986.595 413.998Z" fill="#606D29"/>
<path d="M986.595 413.998C996.135 401.94 1003.82 389.664 1009.05 380.528C1002.01 366.054 990.935 355.424 976.381 351.58C981.431 362.194 986.963 381.334 986.595 413.998Z" fill="#606D29"/>
<path d="M1009.05 380.527C1003.82 389.663 996.133 401.941 986.595 413.997C986.543 418.553 986.381 423.365 986.083 428.461C983.493 472.712 979.961 506.618 977.647 526.032L996.813 525.822C996.813 525.822 1016.21 468.308 1017.81 426.985C1018.47 409.797 1015.41 393.597 1009.05 380.527Z" fill="#3F4F21"/>
<path d="M994.261 436.094C983.555 436.814 973.247 441.316 966.895 450.352C950.909 473.102 961.239 520.45 961.239 520.45L973.265 522.266C973.721 511.916 975.033 495.204 978.703 474.702C982.071 455.872 988.777 443.51 994.261 436.094Z" fill="#7B8E36"/>
<path d="M1018.48 441.066C1011.31 437.301 1002.67 435.527 994.263 436.093C988.777 443.51 982.073 455.872 978.703 474.702C975.033 495.204 973.723 511.916 973.267 522.266L1004.89 527.044C1007.62 518.144 1012.56 501.644 1016.83 485.242C1020.75 470.154 1019.77 452.318 1018.48 441.066Z" fill="#93AF45"/>
<path d="M1033.31 456.5C1030.59 449.81 1025.17 444.578 1018.48 441.066C1019.76 452.318 1020.75 470.154 1016.83 485.242C1012.56 501.644 1007.62 518.144 1004.89 527.042L1021.25 529.514C1021.25 529.514 1042.65 479.498 1033.31 456.5Z" fill="#7B8E36"/>
<path d="M906.141 375.938C902.577 376.306 918.561 395.258 920.161 394.028C921.759 392.798 924.711 389.478 921.391 386.156C918.069 382.836 909.831 375.558 906.141 375.938Z" fill="#3F4F21"/>
<path d="M903.571 415.681C900.939 415.931 912.741 428.825 913.921 427.987C915.103 427.151 917.281 424.891 914.829 422.633C912.379 420.375 906.295 415.423 903.571 415.681Z" fill="#3F4F21"/>
<path d="M946.333 412.305C944.043 410.981 946.175 428.331 947.623 428.335C949.069 428.339 952.155 427.763 951.469 424.501C950.783 421.237 948.701 413.675 946.333 412.305Z" fill="#3F4F21"/>
<path d="M966.807 469.426C964.791 468.26 966.667 483.53 967.939 483.532C969.213 483.536 971.931 483.03 971.327 480.158C970.723 477.288 968.891 470.632 966.807 469.426Z" fill="#3F4F21"/>
<path d="M905.395 475.952C902.917 476.872 917.641 486.292 918.565 485.18C919.491 484.068 921.015 481.324 918.065 479.772C915.113 478.22 907.961 475 905.395 475.952Z" fill="#3F4F21"/>
<path d="M1024.46 387.516C1028.03 387.884 1012.04 406.836 1010.44 405.606C1008.85 404.376 1005.89 401.056 1009.21 397.734C1012.54 394.414 1020.77 387.136 1024.46 387.516Z" fill="#3F4F21"/>
<path d="M1009.54 363.577C1012.17 363.827 1000.37 376.721 999.185 375.883C998.005 375.047 995.827 372.787 998.277 370.529C1000.73 368.271 1006.81 363.319 1009.54 363.577Z" fill="#3F4F21"/>
<path d="M1036.98 489.706C1038.75 489.874 1030.8 498.568 1030 498.002C1029.2 497.438 1027.73 495.916 1029.39 494.392C1031.04 492.87 1035.14 489.532 1036.98 489.706Z" fill="#3F4F21"/>
<path d="M981.169 391.135C983.773 390.677 975.815 406.241 974.455 405.749C973.095 405.255 970.393 403.655 972.159 400.827C973.923 397.999 978.473 391.609 981.169 391.135Z" fill="#3F4F21"/>
<path d="M1012.24 458.77C1014.84 458.312 1006.88 473.876 1005.53 473.384C1004.16 472.89 1001.46 471.29 1003.23 468.462C1004.99 465.632 1009.54 459.244 1012.24 458.77Z" fill="#3F4F21"/>
<path d="M994.761 546.408C974.715 546.604 975.271 557.72 960.977 557.534C946.683 557.35 941.301 551.966 922.737 549.74C915.841 548.91 908.999 550.552 903.117 552.936C908.007 574.93 915.979 604.692 919.829 607.818C925.767 612.644 953.055 621.926 972.547 621.926C992.039 621.926 1017.28 615.8 1020.44 611.16C1022.3 608.426 1029.63 581.118 1035 558.228C1033.05 558.62 1031.14 558.9 1029.29 559.02C1012.02 560.134 1014.81 546.212 994.761 546.408Z" fill="black"/>
<path d="M922.739 537.648C941.303 539.876 946.685 545.258 960.979 545.444C975.273 545.63 974.715 534.514 994.763 534.316C1014.81 534.12 1012.03 548.044 1029.29 546.93C1032.05 546.752 1034.95 546.23 1037.88 545.482C1040.04 535.436 1041.35 527.916 1040.86 526.622C1039.19 522.244 1000.05 512.034 972.547 512.034C931.895 512.034 899.967 524.286 899.039 529.484C898.823 530.698 899.525 535.376 900.791 541.86C907.153 538.956 914.905 536.708 922.739 537.648Z" fill="black"/>
<path d="M1029.29 546.928C1012.02 548.042 1014.81 534.12 994.761 534.316C974.715 534.512 975.271 545.63 960.979 545.444C946.685 545.258 941.301 539.874 922.739 537.646C914.905 536.706 907.153 538.956 900.789 541.858C901.433 545.154 902.223 548.908 903.119 552.936C908.999 550.552 915.841 548.912 922.739 549.74C941.301 551.968 946.685 557.35 960.979 557.536C975.271 557.72 974.715 546.604 994.761 546.408C1014.81 546.212 1012.02 560.134 1029.29 559.02C1031.14 558.9 1033.05 558.622 1035 558.228C1036.05 553.73 1037.03 549.418 1037.88 545.482C1034.95 546.228 1032.05 546.75 1029.29 546.928Z" fill="black"/>
<path d="M994.761 546.408C974.715 546.604 975.271 557.72 960.977 557.534C946.683 557.35 941.301 551.966 922.737 549.74C915.841 548.91 908.999 550.552 903.117 552.936C908.007 574.93 915.979 604.692 919.829 607.818C925.767 612.644 953.055 621.926 972.547 621.926C992.039 621.926 1017.28 615.8 1020.44 611.16C1022.3 608.426 1029.63 581.118 1035 558.228C1033.05 558.62 1031.14 558.9 1029.29 559.02C1012.02 560.134 1014.81 546.212 994.761 546.408Z" fill="#BA462B"/>
<path d="M922.739 537.648C941.303 539.876 946.685 545.258 960.979 545.444C975.273 545.63 974.715 534.514 994.763 534.316C1014.81 534.12 1012.03 548.044 1029.29 546.93C1032.05 546.752 1034.95 546.23 1037.88 545.482C1040.04 535.436 1041.35 527.916 1040.86 526.622C1039.19 522.244 1000.05 512.034 972.547 512.034C931.895 512.034 899.967 524.286 899.039 529.484C898.823 530.698 899.525 535.376 900.791 541.86C907.153 538.956 914.905 536.708 922.739 537.648Z" fill="#BA462B"/>
<path d="M1029.29 546.928C1012.02 548.042 1014.81 534.12 994.761 534.316C974.715 534.512 975.271 545.63 960.979 545.444C946.685 545.258 941.301 539.874 922.739 537.646C914.905 536.706 907.153 538.956 900.789 541.858C901.433 545.154 902.223 548.908 903.119 552.936C908.999 550.552 915.841 548.912 922.739 549.74C941.301 551.968 946.685 557.35 960.979 557.536C975.271 557.72 974.715 546.604 994.761 546.408C1014.81 546.212 1012.02 560.134 1029.29 559.02C1031.14 558.9 1033.05 558.622 1035 558.228C1036.05 553.73 1037.03 549.418 1037.88 545.482C1034.95 546.228 1032.05 546.75 1029.29 546.928Z" fill="#59332B"/>
<defs>
<filter id="filter0_d_21_4" x="690.378" y="-39.9142" width="848.622" height="1036.13" filterUnits="userSpaceOnUse" color-interpolation-filters="sRGB">
<feFlood flood-opacity="0" result="BackgroundImageFix"/>
<feColorMatrix in="SourceAlpha" type="matrix" values="0 0 0 0 0 0 0 0 0 0 0 0 0 0 0 0 0 0 127 0" result="hardAlpha"/>
<feOffset dy="4"/>
<feGaussianBlur stdDeviation="2"/>
<feComposite in2="hardAlpha" operator="out"/>
<feColorMatrix type="matrix" values="0 0 0 0 0 0 0 0 0 0 0 0 0 0 0 0 0 0 0.25 0"/>
<feBlend mode="normal" in2="BackgroundImageFix" result="effect1_dropShadow_21_4"/>
<feBlend mode="normal" in="SourceGraphic" in2="effect1_dropShadow_21_4" result="shape"/>
</filter>
<filter id="filter1_b_21_4" x="-7" y="561" width="1523" height="311" filterUnits="userSpaceOnUse" color-interpolation-filters="sRGB">
<feFlood flood-opacity="0" result="BackgroundImageFix"/>
<feGaussianBlur in="BackgroundImageFix" stdDeviation="2"/>
<feComposite in2="SourceAlpha" operator="in" result="effect1_backgroundBlur_21_4"/>
<feBlend mode="normal" in="SourceGraphic" in2="effect1_backgroundBlur_21_4" result="shape"/>
</filter>
<filter id="filter2_f_21_4" x="470" y="600" width="146.5" height="35" filterUnits="userSpaceOnUse" color-interpolation-filters="sRGB">
<feFlood flood-opacity="0" result="BackgroundImageFix"/>
<feBlend mode="normal" in="SourceGraphic" in2="BackgroundImageFix" result="shape"/>
<feGaussianBlur stdDeviation="2" result="effect1_foregroundBlur_21_4"/>
</filter>
<filter id="filter3_f_21_4" x="668" y="604" width="136" height="35" filterUnits="userSpaceOnUse" color-interpolation-filters="sRGB">
<feFlood flood-opacity="0" result="BackgroundImageFix"/>
<feBlend mode="normal" in="SourceGraphic" in2="BackgroundImageFix" result="shape"/>
<feGaussianBlur stdDeviation="2" result="effect1_foregroundBlur_21_4"/>
</filter>
<filter id="filter4_f_21_4" x="1087" y="594.383" width="146.5" height="35" filterUnits="userSpaceOnUse" color-interpolation-filters="sRGB">
<feFlood flood-opacity="0" result="BackgroundImageFix"/>
<feBlend mode="normal" in="SourceGraphic" in2="BackgroundImageFix" result="shape"/>
<feGaussianBlur stdDeviation="2" result="effect1_foregroundBlur_21_4"/>
</filter>
<filter id="filter5_f_21_4" x="301" y="603" width="129" height="35" filterUnits="userSpaceOnUse" color-interpolation-filters="sRGB">
<feFlood flood-opacity="0" result="BackgroundImageFix"/>
<feBlend mode="normal" in="SourceGraphic" in2="BackgroundImageFix" result="shape"/>
<feGaussianBlur stdDeviation="2" result="effect1_foregroundBlur_21_4"/>
</filter>
<filter id="filter6_f_21_4" x="903.73" y="595.8" width="137" height="39.8243" filterUnits="userSpaceOnUse" color-interpolation-filters="sRGB">
<feFlood flood-opacity="0" result="BackgroundImageFix"/>
<feBlend mode="normal" in="SourceGraphic" in2="BackgroundImageFix" result="shape"/>
<feGaussianBlur stdDeviation="2" result="effect1_foregroundBlur_21_4"/>
</filter>
<linearGradient id="paint0_linear_21_4" x1="1197" y1="-39.3194" x2="1182.1" y2="1265.61" gradientUnits="userSpaceOnUse">
<stop offset="0.129016" stop-color="#506248"/>
<stop offset="0.5" stop-color="#9EAA12" stop-opacity="0.53"/>
<stop offset="0.825" stop-color="#506248"/>
</linearGradient>
<radialGradient id="paint1_radial_21_4" cx="0" cy="0" r="1" gradientUnits="userSpaceOnUse" gradientTransform="translate(559.5 611.714) rotate(86.7428) scale(26.3998 105.822)">
<stop stop-color="#161616"/>
<stop offset="0.915" stop-color="#818181" stop-opacity="0"/>
</radialGradient>
<radialGradient id="paint2_radial_21_4" cx="0" cy="0" r="1" gradientUnits="userSpaceOnUse" gradientTransform="translate(748.685 615.714) rotate(86.2453) scale(26.4138 121.964)">
<stop stop-color="#161616"/>
<stop offset="0.915" stop-color="#818181" stop-opacity="0"/>
</radialGradient>
<radialGradient id="paint3_radial_21_4" cx="0" cy="0" r="1" gradientUnits="userSpaceOnUse" gradientTransform="translate(1182.5 610.714) rotate(86.7428) scale(26.3998 105.822)">
<stop stop-color="#161616"/>
<stop offset="0.915" stop-color="#818181" stop-opacity="0"/>
</radialGradient>
<radialGradient id="paint4_radial_21_4" cx="0" cy="0" r="1" gradientUnits="userSpaceOnUse" gradientTransform="translate(377.491 614.714) rotate(86.4501) scale(26.4078 115.32)">
<stop stop-color="#161616"/>
<stop offset="0.915" stop-color="#818181" stop-opacity="0"/>
</radialGradient>
<radialGradient id="paint5_radial_21_4" cx="0" cy="0" r="1" gradientUnits="userSpaceOnUse" gradientTransform="translate(972.685 615.714) rotate(86.2453) scale(26.4138 121.964)">
<stop stop-color="#161616"/>
<stop offset="0.915" stop-color="#818181" stop-opacity="0"/>
</radialGradient>
</defs>
</svg>
