<svg width="148" height="158" viewBox="0 0 148 158" fill="none" xmlns="http://www.w3.org/2000/svg">
<g filter="url(#filter0_d_1_154)">
<path d="M49.9924 66.0027C49.9924 66.0027 48.6206 63.0174 39.6646 53.8997C30.7077 44.7821 30.6277 40.1824 30.6277 40.1824V53.0921C30.6277 61.403 40.7765 81.172 40.7765 81.172L48.5406 84.6416L49.9924 66.0027Z" fill="#3F4F21"/>
<path d="M65.969 107.638C65.969 107.638 62.9835 89.6447 45.6348 86.3359C28.287 83.0281 26.3509 88.2728 20.4602 87.7077C14.5704 87.1427 9.0031 78.6709 4 79.7193C4 79.7193 6.01776 86.7393 10.1324 91.6615C14.2479 96.5838 27.0768 94.4861 38.3732 96.8255C49.6695 99.1658 54.35 112.317 54.35 112.317L65.969 107.638Z" fill="#3F4F21"/>
<path d="M74.8443 0C74.8443 0 73.4724 13.5557 68.0668 21.4625C62.6606 29.3701 64.4358 32.3537 64.6775 43.53C64.92 54.7064 60.7237 55.1098 59.3527 65.196C57.9809 75.2821 66.7115 104.566 66.7115 104.566H78.4121C78.4121 104.566 72.7465 83.4758 77.7487 66.8312C82.7518 50.1875 84.2402 50.5918 78.4121 40.9898C72.5848 31.3878 79.8021 29.8543 78.4121 19.3647C77.0228 8.87518 74.8443 0 74.8443 0Z" fill="#3F4F21"/>
<path d="M74.8442 105.863C74.8442 105.863 73.4724 87.9503 52.8169 78.7517C32.1604 69.5532 30.7885 71.6952 28.0449 66.8321C25.3021 61.969 24.737 53.3355 19.8147 49.0583C14.8934 44.7818 13.5215 43.2491 12.5531 43.5716C11.5846 43.8942 16.3452 45.1852 15.135 55.5132C13.9249 65.8419 13.0373 83.2706 34.6615 89.5638C56.2865 95.8579 65.969 107.638 65.969 107.638L74.8442 105.863Z" fill="#606D29"/>
<path d="M117.367 28.0793C117.367 28.0793 114.859 35.0185 106.673 41.3126C98.4861 47.6056 92.4346 48.9774 90.4977 58.7411C88.5616 68.5039 87.9131 80.8755 87.9131 80.8755L98.8895 83.4488C98.8895 83.4488 97.5176 74.2329 105.829 64.3892C114.14 54.5447 117.287 50.1858 117.367 43.5294C117.448 36.8745 117.367 28.0793 117.367 28.0793Z" fill="#3F4F21"/>
<path d="M82.1068 66.3253C80.5715 65.4411 82.1476 59.8399 83.7577 55.2515C79.444 58.6602 72.1814 63.1695 69.842 72.8158C67.5017 82.463 66.7115 97.1663 66.7115 97.1663H78.4129C78.4129 97.1663 82.4293 85.8517 91.4662 76.9757C97.7985 70.7572 102.89 66.2322 104.906 59.3957C95.1965 66.3852 84.5801 67.7493 82.1068 66.3253Z" fill="#606D29"/>
<path d="M105.667 49.0583C104.295 35.4217 100.916 36.2293 102.485 29.2084C104.053 22.1893 107.039 21.4625 106.635 15.6536C106.232 9.84371 102.485 5.16401 102.485 5.16401C102.485 5.16401 103.24 15.411 97.9176 20.3333C92.5954 25.2555 92.5154 32.1947 93.2414 38.7304C93.9673 45.2662 88.0713 51.8428 83.7576 55.2515L83.7568 55.2524C82.1467 59.8399 80.5706 65.442 82.1059 66.3252C84.5792 67.7492 95.1956 66.3852 104.906 59.3957C105.768 56.4755 106.078 53.1399 105.667 49.0583Z" fill="#7B8E36"/>
<path d="M112.123 91.0165C112.204 90.2097 114.301 89.8872 118.255 85.5291C120.511 83.0437 122.029 79.7741 122.918 77.4199C114.416 78.0015 103.29 79.7941 93.7256 85.3683C80.5732 93.0334 78.4129 104.566 78.4129 104.566L94.2098 107.638C94.2098 107.638 100.207 97.3436 114.96 92.4857C113.34 91.8702 112.094 91.3016 112.123 91.0165Z" fill="#606D29"/>
<path d="M143.268 67.7779C143.268 67.7779 139.322 77.0982 131.165 77.1373C128.939 77.1486 126.107 77.2017 122.917 77.4199C122.028 79.7732 120.51 83.0437 118.255 85.5292C114.3 89.8863 112.203 90.2089 112.122 91.0156C112.094 91.3016 113.34 91.8702 114.959 92.4848C129.712 87.6269 133.02 91.7424 138.104 86.4976C143.187 81.2528 143.268 67.7779 143.268 67.7779Z" fill="#7B8E36"/>
<path d="M78.7545 78.1701C78.1651 78.55 77.5644 78.9517 76.9428 79.3976C64.4353 88.3537 65.969 107.638 65.969 107.638H78.4129C78.4129 107.638 81.9024 96.4508 91.3227 91.9067C87.608 90.6348 83.389 88.8492 80.8158 86.6593C78.1608 84.4007 78.1156 81.0242 78.7545 78.1701Z" fill="#7B8E36"/>
<path d="M129.712 45.5078C128.825 40.0214 128.744 38.7304 128.744 38.7304C128.744 38.7304 118.254 48.4123 111.315 52.1244C104.376 55.8357 106.76 68.5847 100.969 71.9734C95.4651 75.1935 90.0135 70.918 78.7537 78.1701C78.1147 81.0242 78.1608 84.4007 80.8149 86.6584C83.3881 88.8483 87.6071 90.6348 91.3218 91.9067C92.512 91.332 93.7925 90.8582 95.1774 90.5322C107.523 87.6269 113.494 86.9818 116.479 79.7202C119.464 72.4576 119.061 67.9396 123.902 61.8072C128.744 55.6749 130.6 50.9952 129.712 45.5078Z" fill="#93AF45"/>
<path d="M62.1664 72.6124C60.3946 60.4172 64.3015 52.2375 60.3207 43.5299C55.8019 33.6472 46.2303 30.581 43.6336 26.1429C41.036 21.7049 41.9201 13.0714 41.9201 13.0714C41.9201 13.0714 33.4518 21.5432 37.8889 28.8866C42.327 36.2291 50.4771 36.8742 47.41 46.6378C45.1271 53.9083 43.7979 61.7264 44.8611 68.9733C46.7354 70.3042 48.9627 71.5552 51.283 72.1351C54.8091 73.0166 59.1263 72.8836 62.1664 72.6124Z" fill="#93AF45"/>
<path d="M63.2254 77.7833C62.7455 75.9776 62.4056 74.2598 62.1665 72.6124C59.1264 72.8836 54.8083 73.0166 51.2831 72.1351C48.962 71.5544 46.7347 70.3034 44.8613 68.9733C45.2255 71.457 45.8688 73.8747 46.8547 76.1793C50.7189 85.2066 61.9344 97.9556 61.9344 97.9556L65.969 107.638L74.8442 105.863C74.8442 105.863 67.26 92.9525 63.2254 77.7833Z" fill="#7B8E36"/>
<path d="M42.9405 121.663C45.0791 130.998 48.2531 142.584 49.8309 143.868C52.4129 145.965 64.2743 150 72.7474 150C81.2192 150 92.193 147.337 93.5648 145.319C94.3776 144.125 97.596 132.12 99.9345 122.136C79.3492 116.663 55.9381 119.349 42.9405 121.663Z" fill="#BA462B"/>
<path d="M100.969 117.579C102.015 112.806 102.668 109.169 102.44 108.573C101.713 106.67 84.7 102.232 72.7465 102.232C55.0753 102.232 41.1979 107.558 40.7936 109.817C40.6806 110.453 41.1414 113.258 41.9203 117.01C54.8927 114.624 79.5909 111.579 100.969 117.579Z" fill="#BA462B"/>
<path d="M41.9204 117.01C42.2177 118.444 42.5646 120.021 42.9402 121.663C55.9378 119.349 79.3483 116.662 99.9336 122.136C100.306 120.547 100.655 119.012 100.969 117.579C79.5908 111.578 54.892 114.623 41.9204 117.01Z" fill="#59332B"/>
</g>
<defs>
<filter id="filter0_d_1_154" x="0" y="0" width="147.268" height="158" filterUnits="userSpaceOnUse" color-interpolation-filters="sRGB">
<feFlood flood-opacity="0" result="BackgroundImageFix"/>
<feColorMatrix in="SourceAlpha" type="matrix" values="0 0 0 0 0 0 0 0 0 0 0 0 0 0 0 0 0 0 127 0" result="hardAlpha"/>
<feOffset dy="4"/>
<feGaussianBlur stdDeviation="2"/>
<feComposite in2="hardAlpha" operator="out"/>
<feColorMatrix type="matrix" values="0 0 0 0 0 0 0 0 0 0 0 0 0 0 0 0 0 0 0.25 0"/>
<feBlend mode="normal" in2="BackgroundImageFix" result="effect1_dropShadow_1_154"/>
<feBlend mode="normal" in="SourceGraphic" in2="effect1_dropShadow_1_154" result="shape"/>
</filter>
</defs>
</svg>
