<svg width="1512" height="720" viewBox="0 0 1512 720" fill="none" xmlns="http://www.w3.org/2000/svg">
<g filter="url(#filter0_b_20_2)">
<rect x="-3" y="417" width="1515" height="303" fill="white"/>
</g>
<g filter="url(#filter1_f_20_2)">
<path d="M612.5 465.5C612.5 472.956 576.823 483 547 483C517.177 483 474 475.456 474 468C474 460.544 517.177 456 547 456C576.823 456 612.5 458.044 612.5 465.5Z" fill="url(#paint0_radial_20_2)" fill-opacity="0.57"/>
</g>
<path d="M527.492 387.114L520.988 386.632C521.024 386.162 524.328 339.036 512.36 292.432C500.476 246.166 470.03 213.973 469.724 213.653L474.432 209.141C475.728 210.493 506.35 242.826 518.674 290.81C530.916 338.484 527.528 386.632 527.492 387.114Z" fill="#3F4F21"/>
<path d="M550.746 379.936L545.05 376.766C544.822 377.172 544.772 377.492 544.77 377.506C545.298 374.088 542.498 335.45 534.212 289.874C525.986 244.624 503.704 169.305 503.48 168.549L509.73 166.693C509.954 167.453 532.338 243.106 540.626 288.708C548.064 329.622 552.786 376.274 550.746 379.936Z" fill="#3F4F21"/>
<path d="M561.586 383.546L555.066 383.45C555.068 383.274 555.358 365.262 558.3 324.688C561.26 283.886 583.456 203.417 584.398 200.011L590.682 201.751C590.452 202.579 567.716 285.004 564.804 325.16C561.878 365.506 561.588 383.37 561.586 383.546Z" fill="#3F4F21"/>
<path d="M577.172 385.428L570.804 384.024C570.83 383.908 573.462 371.932 578.772 344.686C584.312 316.26 608.91 295.464 609.956 294.592L614.132 299.598C613.896 299.798 590.262 319.818 585.172 345.934C579.842 373.274 577.2 385.308 577.172 385.428Z" fill="#3F4F21"/>
<path d="M510.074 253.754C510.074 253.754 489.378 231.108 462.628 257.094C435.88 283.084 447.762 343.97 465.026 359.562C465.026 359.562 468.18 336.878 489.156 335.504C510.132 334.13 534.62 325.544 549.478 302.086C564.336 278.628 557.654 254.778 540.39 248.882C523.126 242.988 510.074 253.754 510.074 253.754Z" fill="#93AF45"/>
<path d="M505.122 261.922C505.122 261.922 471.152 284.198 462.798 329.12C462.798 329.12 457.6 277.886 505.122 261.922Z" fill="#606D29"/>
<path d="M608.448 278.628C608.448 278.628 578.632 275.988 579.744 304.966C580.858 333.946 621.152 326.668 629.406 335.504C637.66 344.34 641.942 349.538 641.942 349.538C641.942 349.538 662.536 329.698 649.542 289.29C636.548 248.882 608.75 266.562 608.448 278.628Z" fill="#606D29"/>
<path d="M616.87 286.796C616.87 286.796 640.26 306.844 641.746 329.12C641.746 329.12 645.828 293.85 616.87 286.796Z" fill="#3F4F21"/>
<path d="M641.942 126.783C641.942 126.783 585.87 131.795 567.492 164.651C549.116 197.507 562.11 217.185 573.988 214.215L585.87 211.243C585.87 211.243 590.002 229.806 610.862 225.166C631.722 220.526 641.744 196.995 639.888 181.751C638.032 166.507 623.762 140.333 641.942 126.783Z" fill="#606D29"/>
<path d="M616.87 148.316C616.87 148.316 592.182 169.478 585.684 195.466C585.684 195.466 576.96 171.148 616.87 148.316Z" fill="#3F4F21"/>
<path d="M482.702 221.916C482.702 221.916 483.032 239.832 457.6 239.646C432.168 239.46 423.63 211.832 412.308 209.126C400.984 206.418 393 207.718 393 207.718C393 207.718 405.398 179.316 446.906 183.586C488.414 187.856 502.792 210.124 482.702 221.916Z" fill="#606D29"/>
<path d="M426.414 202.148C426.414 202.148 453.702 204.004 474.678 217.37C474.678 217.37 465.954 195.466 426.414 202.148Z" fill="#3F4F21"/>
<path d="M577.144 200.881C577.144 200.881 547.086 190.615 545.588 220.566C544.09 250.518 569.654 248.37 600.872 252.268C632.092 256.166 643.228 280.448 643.228 280.448C643.228 280.448 658.45 246.884 648.054 217.371C637.66 187.855 583.27 163.229 577.144 200.881Z" fill="#93AF45"/>
<path d="M587.542 207.717C587.542 207.717 623.368 213.753 636.548 248.884C636.548 248.884 635.992 208.089 587.542 207.717Z" fill="#606D29"/>
<path d="M417.504 131.609C417.504 131.609 433.096 133.095 439.408 154.999C445.718 176.903 455.576 204.933 483.876 206.233C512.174 207.531 519.688 203.819 525.028 191.753L530.368 179.687C530.368 179.687 545.96 175.789 547.816 155.369C549.672 134.951 520.156 108.405 479.876 110.075C439.594 111.747 417.504 131.609 417.504 131.609Z" fill="#93AF45"/>
<path d="M448.69 134.208C448.69 134.208 496.212 139.778 519.972 171.706C519.972 171.706 505.308 128.64 448.69 134.208Z" fill="#606D29"/>
<path d="M534.264 413.58L557.654 397.616C534.564 392.772 510.996 396.714 492.4 402.304C493.004 405.66 493.644 409.114 494.312 412.59C516.748 407.626 534.264 413.58 534.264 413.58Z" fill="#D87C48"/>
<path d="M563.594 391.304C578.55 380.112 596.642 375.216 610.862 373.102C611.346 372.088 611.37 372.372 610.374 371.466C608.33 369.608 590.138 361.98 549.858 362.346C524.428 362.576 489.156 366.616 487.858 369.772C487.408 370.86 488.772 381.108 491.014 394.366C536.118 378.432 563.594 391.304 563.594 391.304Z" fill="#D87C48"/>
<path d="M602.718 413.048C605.506 400.158 607.8 388.474 608.448 383.498C597.738 385.466 585.014 389.168 573.99 396.132C573.99 396.132 585.552 404.466 602.718 413.048Z" fill="#D87C48"/>
<path d="M528.696 429.174C518.858 436.654 509.804 443.922 502.734 449.726C504.308 455.144 505.77 459.014 506.978 460.36C513.476 467.598 536.678 468.34 549.858 468.898C563.038 469.456 586.798 465.928 589.954 462.216C591.684 460.18 596.55 440.744 600.88 421.392C582.184 411.584 566.194 400.958 566.194 400.958C566.194 400.958 551.156 412.096 528.696 429.174Z" fill="#D87C48"/>
<path d="M573.988 396.132C585.014 389.168 597.736 385.468 608.446 383.5C609.338 376.662 610.352 374.168 610.862 373.104C596.642 375.216 578.548 380.112 563.594 391.304C563.594 391.304 536.116 378.434 491.014 394.368C491.446 396.916 491.91 399.58 492.4 402.306C510.996 396.716 534.564 392.774 557.654 397.616L534.264 413.582C534.264 413.582 516.748 407.628 494.312 412.592C494.83 415.284 495.362 417.984 495.908 420.664C504.034 418.978 514.172 418.458 524.24 422.12L500.662 441.976C501.362 444.788 502.058 447.408 502.732 449.726C509.802 443.922 518.858 436.654 528.696 429.174C551.156 412.096 566.194 400.958 566.194 400.958C566.194 400.958 582.184 411.584 600.878 421.392C601.506 418.59 602.122 415.794 602.716 413.048C585.55 404.466 573.988 396.132 573.988 396.132Z" fill="#59332B"/>
<path d="M495.908 420.662C497.452 428.262 499.078 435.64 500.662 441.974L524.24 422.118C514.172 418.456 504.034 418.978 495.908 420.662Z" fill="#D87C48"/>
<g filter="url(#filter2_f_20_2)">
<path d="M800 468C800 475.456 768.661 487 734.27 487C699.879 487 672 480.956 672 473.5C672 466.044 699.879 460 734.27 460C768.661 460 800 460.544 800 468Z" fill="url(#paint1_radial_20_2)" fill-opacity="0.57"/>
</g>
<path d="M773.905 328.607C773.905 328.607 802.269 313.943 835.329 303.733C868.391 293.523 888.253 267.535 888.253 267.535C888.253 267.535 852.797 259.739 821.797 274.033C790.797 288.325 759.427 320.515 759.427 320.515L773.905 328.607Z" fill="#3F4F21"/>
<path d="M742.349 144.091C747.861 143.493 757.157 119.769 763.109 97.0829C756.965 68.1929 750.777 49.0409 748.659 39.0249C745.877 25.8449 749.031 1.89894 745.691 0.0429431C742.973 -1.46706 725.157 37.047 719.095 83.633C726.831 111.155 737.307 144.639 742.349 144.091Z" fill="#3F4F21"/>
<path d="M768.789 127.387C766.987 116.287 765.049 106.211 763.107 97.085C757.157 119.769 747.859 143.495 742.347 144.093C737.307 144.641 726.831 111.157 719.093 83.6331C717.701 94.3331 716.929 105.455 717.101 116.619C718.031 176.393 739.233 263.265 739.233 263.265L748.659 259.183C748.659 259.183 776.297 173.607 768.789 127.387Z" fill="#283018"/>
<path d="M648.049 302.249C649.719 299.281 640.253 293.153 622.061 274.035C612.475 263.959 601.655 252.033 593.561 242.999C571.855 239.653 553.401 237.965 553.007 238.745C552.263 240.211 612.407 292.597 630.971 302.993C632.007 303.571 633.125 304.169 634.295 304.775C641.413 304.207 647.405 303.393 648.049 302.249Z" fill="#7B8E36"/>
<path d="M719.701 324.153C719.701 324.153 713.947 307.447 707.821 290.741C701.695 274.033 678.307 265.681 648.237 255.101C634.181 250.153 612.617 245.939 593.561 242.999C601.655 252.031 612.475 263.959 622.061 274.033C640.251 293.153 649.719 299.279 648.049 302.249C647.405 303.393 641.413 304.205 634.295 304.775C654.131 315.039 691.857 328.609 691.857 328.609L719.701 324.153Z" fill="#606D29"/>
<path d="M800.635 267.535C797.437 266.061 813.629 226.705 824.923 200.305C809.399 211.903 793.687 225.649 780.589 240.619C755.899 268.835 748.659 323.409 748.659 323.409L761.653 328.607C761.653 328.607 767.143 320.685 774.647 310.787C781.761 301.403 819.599 281.609 843.599 260.437C825.093 264.463 803.349 268.789 800.635 267.535Z" fill="#606D29"/>
<path d="M899.019 157.457C899.763 152.075 888.253 162.097 863.749 175.279C852.249 181.465 838.659 190.047 824.923 200.305C813.631 226.705 797.439 266.061 800.637 267.535C803.351 268.789 825.093 264.463 843.601 260.437C844.911 259.279 846.193 258.119 847.415 256.955C870.989 234.495 898.277 162.841 899.019 157.457Z" fill="#7B8E36"/>
<path d="M716.731 232.825C718.261 232.963 722.087 199.103 723.125 174.315C697.135 114.807 654.363 65.401 655.473 69.841C656.587 74.297 677.749 137.411 676.265 165.255C676.075 168.781 675.919 172.615 675.817 176.669C682.513 190.337 691.533 207.121 698.911 215.003C712.461 229.483 714.689 232.639 716.731 232.825Z" fill="#7B8E36"/>
<path d="M723.389 174.907C723.303 174.709 723.213 174.515 723.125 174.315C722.087 199.103 718.263 232.963 716.731 232.825C714.689 232.639 712.463 229.483 698.911 215.003C691.535 207.121 682.513 190.337 675.819 176.669C675.131 204.651 677.219 243.295 691.485 265.415C707.821 290.741 719.701 324.153 719.701 324.153L740.855 326.073C740.855 326.073 749.351 234.681 723.389 174.907Z" fill="#606D29"/>
<path d="M728.239 326.009C728.239 326.009 732.139 276.073 678.119 231.337C624.101 186.601 569.527 144.277 565.257 147.061C560.987 149.847 570.269 204.477 602.383 236.469C634.497 268.465 686.101 274.637 700.023 293.825C713.947 313.015 714.873 330.555 714.873 330.555L728.239 326.009Z" fill="#3F4F21"/>
<path d="M735.665 325.267C735.665 325.267 721.929 260.111 745.319 204.977C768.707 149.847 775.947 137.039 776.875 109.193C777.803 81.349 777.061 66.499 779.473 66.499C781.887 66.499 799.893 87.1029 802.121 154.117C804.349 221.129 775.015 282.471 766.889 301.135C758.765 319.799 757.199 328.607 757.199 328.607L735.665 325.267Z" fill="#93AF45"/>
<path d="M682.301 416.127C685.647 440.633 689.153 461.017 691.601 463.747C698.099 470.987 721.303 471.729 734.483 472.285C747.663 472.841 771.423 469.315 774.579 465.603C775.963 463.973 779.359 441.315 782.883 415.269C742.393 424.331 705.301 420.545 682.301 416.127Z" fill="#59332B"/>
<path d="M792.809 337.719C792.915 336.887 793.005 336.181 793.073 335.651C794.813 322.295 797.039 325.475 794.999 323.617C792.955 321.761 774.765 314.133 734.483 314.499C709.053 314.731 673.781 318.767 672.483 321.925C672.219 322.563 672.581 328.461 673.377 337.521C700.771 334.047 745.945 330.755 792.809 337.719Z" fill="#59332B"/>
<path d="M673.377 337.521C675.033 356.337 678.569 388.795 682.301 416.127C705.301 420.545 742.393 424.329 782.883 415.269C787.069 384.331 791.427 348.633 792.809 337.719C745.945 330.753 700.771 334.047 673.377 337.521Z" fill="#D87C48"/>
<g filter="url(#filter3_f_20_2)">
<path d="M1229.5 459.883C1229.5 467.339 1193.82 477.383 1164 477.383C1134.18 477.383 1091 469.839 1091 462.383C1091 454.928 1134.18 450.383 1164 450.383C1193.82 450.383 1229.5 452.428 1229.5 459.883Z" fill="url(#paint2_radial_20_2)" fill-opacity="0.57"/>
</g>
<path d="M1168.82 326.522C1169.2 324.492 1169.66 322.338 1170.2 320.068C1202.7 295.976 1220.51 275.278 1221.25 274.398L1216.29 270.168C1216.13 270.364 1200.58 288.408 1172.76 309.946C1172.99 309.056 1173.22 308.168 1173.47 307.254C1178.42 288.54 1184.57 265.266 1182.08 243.564C1182.08 241.92 1182.52 209.7 1209.01 198.846L1206.54 192.812C1189.68 199.718 1182 213.558 1178.49 225.078C1170.05 191.514 1151.2 148.05 1150.25 145.868L1144.27 148.472C1144.46 148.914 1157.95 180.022 1167.28 209.656C1144.1 190.532 1120.82 185.766 1119.72 185.552L1118.46 191.95C1118.74 192.004 1146.73 197.788 1170.83 221.644C1173.09 229.852 1174.81 237.588 1175.58 244.074C1177.39 259.404 1174.5 275.944 1170.91 290.936C1165.44 279.48 1154.49 275.228 1154.35 275.172L1152.05 281.276C1152.21 281.334 1167.24 287.196 1167.41 304.636C1167.33 304.952 1167.25 305.274 1167.16 305.586C1164.3 316.418 1161.82 325.774 1161.37 333.168C1161.26 334.89 1161.18 336.636 1161.12 338.386C1154.19 332.502 1144.03 330.312 1143.4 330.176L1142.06 336.562C1142.25 336.6 1160.61 340.74 1161.01 350.656C1161.19 364.326 1162.23 375.892 1162.3 376.568L1168.79 375.972C1168.77 375.756 1166.97 355.774 1167.68 337.532C1188.59 311.462 1218.53 310.48 1218.84 310.474L1218.71 303.954C1217.47 303.978 1190.84 304.764 1168.82 326.522Z" fill="#283018"/>
<path d="M1150 334.702C1150.72 342.15 1135.52 332.752 1119.09 340.55C1102.66 348.346 1092.92 356.56 1091.8 353.636C1090.69 350.712 1091.25 321.336 1113.52 314.096C1135.8 306.858 1149.16 326.072 1150 334.702Z" fill="#3F4F21"/>
<path d="M1135.52 192.972C1136.24 200.42 1121.04 191.022 1104.61 198.82C1088.18 206.616 1078.44 214.83 1077.32 211.908C1076.21 208.984 1076.77 179.606 1099.04 172.368C1121.32 165.128 1134.68 184.342 1135.52 192.972Z" fill="#3F4F21"/>
<path d="M1213.08 273.548C1214.47 280.898 1226.27 267.688 1244.02 270.65C1261.78 273.612 1273.31 278.818 1273.56 275.702C1273.8 272.588 1265.08 244.53 1241.93 243.714C1218.78 242.898 1211.46 265.028 1213.08 273.548Z" fill="#3F4F21"/>
<path d="M1190.33 393.164C1170.28 393.362 1170.83 404.478 1156.54 404.292C1142.25 404.108 1136.87 398.722 1118.3 396.496C1111.4 395.668 1104.56 397.308 1098.68 399.694C1103.57 421.688 1111.54 451.45 1115.39 454.576C1121.33 459.402 1148.62 468.684 1168.11 468.684C1187.6 468.684 1212.85 462.556 1216 457.916C1217.86 455.184 1225.19 427.874 1230.56 404.986C1228.62 405.376 1226.7 405.658 1224.85 405.778C1207.59 406.89 1210.37 392.968 1190.33 393.164Z" fill="#D87C48"/>
<path d="M1118.3 384.404C1136.86 386.63 1142.25 392.014 1156.54 392.198C1170.83 392.384 1170.28 381.27 1190.33 381.072C1210.37 380.876 1207.59 394.798 1224.85 393.686C1227.61 393.508 1230.51 392.984 1233.44 392.238C1235.6 382.192 1236.92 374.67 1236.42 373.376C1234.75 369 1195.61 358.79 1168.11 358.79C1127.46 358.79 1095.53 371.042 1094.6 376.24C1094.38 377.452 1095.09 382.13 1096.35 388.614C1102.71 385.71 1110.47 383.462 1118.3 384.404Z" fill="#D87C48"/>
<path d="M1224.85 393.686C1207.59 394.8 1210.37 380.878 1190.33 381.072C1170.28 381.27 1170.83 392.386 1156.54 392.2C1142.25 392.014 1136.87 386.632 1118.3 384.404C1110.47 383.464 1102.72 385.712 1096.35 388.616C1097 391.91 1097.79 395.664 1098.68 399.694C1104.56 397.31 1111.4 395.668 1118.3 396.496C1136.87 398.724 1142.25 404.108 1156.54 404.294C1170.83 404.478 1170.28 393.362 1190.33 393.164C1210.37 392.97 1207.59 406.892 1224.85 405.778C1226.7 405.658 1228.62 405.378 1230.56 404.986C1231.62 400.486 1232.59 396.176 1233.44 392.238C1230.51 392.984 1227.61 393.508 1224.85 393.686Z" fill="#59332B"/>
<path d="M1252.98 231.12C1252.98 231.12 1252.75 221.932 1236.52 220.82C1220.3 219.704 1202.35 205.47 1204.29 194.21C1206.24 182.95 1224.76 174.876 1246.34 184.9C1267.92 194.922 1258.08 224.994 1252.98 231.12Z" fill="#606D29"/>
<path d="M1250.24 215.528C1250.24 215.528 1239.38 197.29 1218.77 195.202C1218.77 195.202 1238.68 187.404 1250.24 215.528Z" fill="#3F4F21"/>
<path d="M1089.85 318.172C1089.85 318.172 1087.77 306.022 1114.91 302.96C1142.06 299.896 1159.74 294.606 1161.14 277.62C1162.53 260.634 1136.35 245.6 1113.24 254.788C1090.13 263.976 1083.87 304.01 1089.85 318.172Z" fill="#606D29"/>
<path d="M1138.3 272.608C1138.3 272.608 1111.43 275.254 1099.88 294.884C1099.88 294.884 1107.4 262.584 1138.3 272.608Z" fill="#3F4F21"/>
<path d="M1285.88 343.89C1285.88 343.89 1271.39 333.03 1259.7 338.042C1248.01 343.054 1221 339.234 1214.6 318.172C1208.19 297.11 1229.63 289.818 1257.2 297.362C1284.76 304.908 1285.88 343.89 1285.88 343.89Z" fill="#606D29"/>
<path d="M1233.44 307.414C1233.44 307.414 1261.51 315.21 1272.51 329.132C1272.51 329.132 1263.7 304.768 1233.44 307.414Z" fill="#3F4F21"/>
<path d="M1113.52 88C1113.52 88 1122.01 102.06 1119.09 115.844C1116.17 129.626 1115.61 152.458 1131.34 163.736C1147.07 175.014 1156.12 175.152 1159.74 172.926C1163.36 170.698 1179.37 152.458 1167.82 126.704C1156.26 100.948 1113.52 88 1113.52 88Z" fill="#606D29"/>
<path d="M1132.45 112.782C1132.45 112.782 1149.44 139.094 1151.39 153.156C1151.39 153.156 1155.15 129.628 1132.45 112.782Z" fill="#3F4F21"/>
<g filter="url(#filter4_f_20_2)">
<path d="M426 467C426 474.456 396.375 486 363.865 486C331.355 486 305 479.956 305 472.5C305 465.044 331.355 459 363.865 459C396.375 459 426 459.544 426 467Z" fill="url(#paint3_radial_20_2)" fill-opacity="0.57"/>
</g>
<path d="M343.512 228.919C343.512 228.919 360.584 257.529 370.93 302.619C381.276 347.707 381.512 380.801 381.512 380.801C381.512 380.801 388.7 328.987 394.68 300.315L400.664 271.641L404.904 275.359C404.904 275.359 390.98 353.199 390.212 371.429L389.444 389.659L374.208 390.211C374.208 390.211 371.438 307.549 351.762 265.257L332.086 222.963L343.512 228.919Z" fill="#3F4F21"/>
<path d="M317.39 265.117C326.16 263.777 332.604 245.917 323.29 239.561C313.976 233.203 279.48 248.193 280.33 253.195C281.104 257.747 308.62 266.457 317.39 265.117ZM314.5 228.781C313.494 224.511 294.62 224.359 296.164 230.605C297.12 234.479 315.504 233.053 314.5 228.781ZM343.512 233.885C320.996 179.811 265.898 162.711 265.898 162.711C307.652 183.793 343.512 233.885 343.512 233.885ZM299.696 213.923C303.408 205.695 295.578 201.531 288.816 200.643C282.054 199.753 269.734 203.135 270.348 207.147C271.254 213.083 295.984 222.151 299.696 213.923ZM283.47 189.315C284.302 186.417 267.814 178.801 266.774 185.459C265.736 192.117 281.79 195.151 283.47 189.315ZM319.87 183.643C328.604 181.387 311.56 148.831 307.314 156.445C303.068 164.061 306.208 187.173 319.87 183.643ZM338.762 171.123C333.818 173.851 327.626 195.643 335.752 198.527C341.256 200.481 343.704 168.395 338.762 171.123ZM361.99 171.103C356.856 176.817 335.502 207.507 349.63 214.577C357.374 218.455 372.922 209.969 370.72 193.645C368.516 177.323 367.124 165.391 361.99 171.103ZM248.516 208.497C253.53 176.007 248.118 149.875 248.118 149.875C248.118 149.875 283.684 137.375 316.294 142.045C348.902 146.715 392.088 168.631 390.15 210.075C388.212 251.517 349.092 239.585 349.092 239.585C347.296 286.575 318.882 283.801 297.502 280.515C276.124 277.231 243.502 240.991 248.516 208.497Z" fill="#606D29"/>
<path d="M265.899 162.711C307.653 183.793 343.513 233.885 343.513 233.885C320.997 179.811 265.899 162.711 265.899 162.711Z" fill="#3F4F21"/>
<path d="M394.358 206.989C391.358 210.707 380.366 223.637 379.396 216.041C378.426 208.445 397.36 203.273 394.358 206.989ZM386.066 192.443C384.892 182.907 418.952 183.875 412.348 187.271C405.742 190.665 387.238 201.979 386.066 192.443ZM413.198 174.017C412.74 168.007 441.786 170.137 438.23 174.017C434.674 177.895 413.704 180.643 413.198 174.017ZM366.914 212.073C369.698 231.557 380.858 245.135 380.858 245.135C380.858 245.135 370.888 269.863 370.374 291.037H375.518C375.518 291.037 376.12 234.749 412.348 205.757C448.574 176.765 483.164 174.143 483.164 174.143C483.164 174.143 451.442 152.359 412.348 163.673C373.254 174.987 364.132 192.591 366.914 212.073Z" fill="#3F4F21"/>
<path d="M374.838 416.583L351.448 400.621C374.538 395.777 398.106 399.717 416.702 405.309C416.098 408.663 415.458 412.117 414.79 415.595C392.354 410.629 374.838 416.583 374.838 416.583Z" fill="#BA462B"/>
<path d="M345.508 394.307C330.552 383.113 312.46 378.217 298.242 376.105C297.758 375.091 297.732 375.373 298.73 374.469C300.772 372.611 318.964 364.983 359.246 365.349C384.674 365.581 419.946 369.619 421.246 372.773C421.694 373.861 420.332 384.111 418.088 397.369C372.984 381.435 345.508 394.307 345.508 394.307Z" fill="#BA462B"/>
<path d="M306.385 416.051C303.597 403.161 301.301 391.477 300.653 386.501C311.365 388.469 324.087 392.171 335.113 399.133C335.113 399.133 323.551 407.469 306.385 416.051Z" fill="#BA462B"/>
<path d="M380.406 432.177C390.244 439.657 399.3 446.923 406.37 452.729C404.796 458.147 403.332 462.017 402.124 463.363C395.628 470.603 372.424 471.345 359.244 471.901C346.066 472.459 322.304 468.931 319.148 465.219C317.418 463.183 312.554 443.747 308.222 424.395C326.918 414.587 342.908 403.961 342.908 403.961C342.908 403.961 357.946 415.099 380.406 432.177Z" fill="#BA462B"/>
<path d="M335.113 399.133C324.087 392.171 311.365 388.469 300.655 386.501C299.763 379.665 298.749 377.171 298.241 376.105C312.459 378.217 330.553 383.113 345.507 394.307C345.507 394.307 372.986 381.435 418.088 397.369C417.656 399.919 417.192 402.581 416.702 405.309C398.108 399.717 374.538 395.775 351.447 400.619L374.838 416.583C374.838 416.583 392.356 410.629 414.79 415.593C414.272 418.285 413.74 420.985 413.194 423.665C405.068 421.981 394.93 421.461 384.862 425.121L408.442 444.977C407.74 447.789 407.044 450.411 406.37 452.729C399.3 446.923 390.246 439.657 380.406 432.175C357.946 415.097 342.909 403.959 342.909 403.959C342.909 403.959 326.917 414.587 308.223 424.395C307.595 421.593 306.979 418.795 306.385 416.051C323.551 407.469 335.113 399.133 335.113 399.133Z" fill="#59332B"/>
<path d="M413.194 423.665C411.65 431.267 410.024 438.643 408.442 444.977L384.862 425.123C394.93 421.461 405.068 421.981 413.194 423.665Z" fill="#BA462B"/>
<path d="M363.652 327.125C359.034 329.079 336.983 298.839 341.025 288.333C345.065 277.829 363.652 280.089 366.884 288.333C370.116 296.579 367.854 325.347 363.652 327.125ZM338.439 316.781C332.781 319.691 328.739 301.263 332.619 299.325C336.499 297.385 341.947 314.977 338.439 316.781ZM279.927 361.545C279.927 361.545 284.131 304.011 331.085 269.909C331.085 269.909 290.919 316.117 279.927 361.545ZM321.629 347.213C317.911 348.711 311.931 337.471 311.283 330.681C310.637 323.893 312.901 315.327 321.629 317.091C330.357 318.857 327.131 344.993 321.629 347.213ZM301.587 355.573C294.959 356.057 298.619 338.279 301.587 338.439C307.567 338.763 308.213 355.087 301.587 355.573ZM264.721 322.599C256.465 320.175 283.959 296.245 288.065 304.247C294.487 316.765 272.977 325.023 264.721 322.599ZM298.839 285.423C297.871 293.991 275.565 292.859 271.847 288.659C268.129 284.455 299.495 279.621 298.839 285.423ZM286.393 252.451C301.587 246.633 313.187 259.873 311.181 268.291C307.523 283.647 273.301 269.747 266.673 266.029C260.047 262.311 271.199 258.271 286.393 252.451ZM386.088 304.247C384.502 282.677 380.862 254.369 335.325 263.189C335.325 263.189 338.109 222.389 297.865 229.825C257.623 237.257 246.147 284.267 248.895 317.091C251.643 349.917 271.539 381.757 271.539 381.757C271.539 381.757 295.445 370.603 327.771 368.179C360.096 365.755 387.676 325.817 386.088 304.247Z" fill="#7B8E36"/>
<path d="M279.927 361.545C290.919 316.117 331.085 269.909 331.085 269.909C284.131 304.011 279.927 361.545 279.927 361.545Z" fill="#606D29"/>
<path d="M366.192 302.921C369.424 294.677 388.012 292.413 392.052 302.921C396.094 313.427 374.042 343.665 369.424 341.713C365.222 339.933 362.958 311.163 366.192 302.921ZM400.458 313.911C404.336 315.851 400.296 334.277 394.64 331.367C391.13 329.561 396.578 311.971 400.458 313.911ZM401.992 284.493C448.944 318.599 453.15 376.129 453.15 376.129C442.158 330.705 401.992 284.493 401.992 284.493ZM411.448 331.679C420.176 329.913 422.44 338.479 421.792 345.267C421.146 352.055 415.166 363.297 411.448 361.797C405.946 359.579 402.72 333.443 411.448 331.679ZM431.49 353.027C434.458 352.865 438.118 370.643 431.49 370.159C424.864 369.673 425.51 353.349 431.49 353.027ZM445.014 318.833C449.118 310.831 476.612 334.761 468.356 337.187C460.1 339.611 438.592 331.353 445.014 318.833ZM461.232 303.243C457.514 307.447 435.206 308.577 434.236 300.011C433.58 294.209 464.948 299.041 461.232 303.243ZM466.402 280.615C459.776 284.333 425.556 298.233 421.896 282.879C419.89 274.459 431.49 261.219 446.684 267.039C461.878 272.857 473.03 276.897 466.402 280.615ZM405.306 382.767C437.632 385.191 461.536 396.343 461.536 396.343C461.536 396.343 481.436 364.501 484.182 331.679C486.93 298.855 475.454 251.845 435.212 244.409C394.968 236.973 397.752 277.775 397.752 277.775C352.211 268.955 348.573 297.263 346.985 318.833C345.399 340.403 372.98 380.341 405.306 382.767Z" fill="#93AF45"/>
<path d="M453.148 376.129C442.158 330.703 401.99 284.493 401.99 284.493C448.944 318.597 453.148 376.129 453.148 376.129Z" fill="#7B8E36"/>
<g filter="url(#filter5_f_20_2)">
<path d="M1036.73 462.057C1036.73 469.513 1004.39 483.625 970 483.625C935.609 483.625 907.73 472.756 907.73 465.3C907.73 457.845 935.609 451.8 970 451.8C1004.39 451.8 1036.73 454.601 1036.73 462.057Z" fill="url(#paint4_radial_20_2)" fill-opacity="0.57"/>
</g>
<path d="M905.753 307.114C910.549 349.406 926.069 378.598 926.069 378.598L941.765 378.426C939.229 361.688 935.791 335.082 934.411 306.418C923.765 309.278 913.927 308.828 905.753 307.114Z" fill="#3F4F21"/>
<path d="M934.411 306.42C933.851 294.816 933.627 282.876 933.939 271.114C934.883 235.572 943.781 214.414 950.925 203.03C922.875 207.75 905.277 229.342 904.381 278.986C904.203 288.842 904.749 298.26 905.753 307.116C913.929 308.83 923.765 309.28 934.411 306.42Z" fill="#606D29"/>
<path d="M934.411 306.42C940.601 304.756 947.055 301.994 953.617 297.678C966.021 289.518 977.201 277.874 986.595 265.998C986.961 233.334 981.431 214.194 976.379 203.58C972.481 202.548 968.333 202 963.947 202C959.391 202 955.047 202.336 950.925 203.03C943.781 214.414 934.883 235.572 933.939 271.114C933.627 282.876 933.851 294.816 934.411 306.42Z" fill="#7B8E36"/>
<path d="M986.595 265.998C977.201 277.874 966.021 289.518 953.617 297.678C947.055 301.994 940.601 304.756 934.411 306.42C935.793 335.082 939.229 361.688 941.767 378.426L977.647 378.032C979.963 358.618 983.493 324.712 986.083 280.46C986.383 275.366 986.545 270.554 986.595 265.998Z" fill="#606D29"/>
<path d="M986.595 265.998C996.135 253.94 1003.82 241.664 1009.05 232.528C1002.01 218.054 990.935 207.424 976.381 203.58C981.431 214.194 986.963 233.334 986.595 265.998Z" fill="#606D29"/>
<path d="M1009.05 232.527C1003.82 241.663 996.133 253.941 986.595 265.997C986.543 270.553 986.381 275.365 986.083 280.461C983.493 324.712 979.961 358.618 977.647 378.032L996.813 377.822C996.813 377.822 1016.21 320.308 1017.81 278.985C1018.47 261.797 1015.41 245.597 1009.05 232.527Z" fill="#3F4F21"/>
<path d="M994.261 288.094C983.555 288.814 973.247 293.316 966.895 302.352C950.909 325.102 961.239 372.45 961.239 372.45L973.265 374.266C973.721 363.916 975.033 347.204 978.703 326.702C982.071 307.872 988.777 295.51 994.261 288.094Z" fill="#7B8E36"/>
<path d="M1018.48 293.066C1011.31 289.301 1002.67 287.527 994.263 288.093C988.777 295.51 982.073 307.872 978.703 326.702C975.033 347.204 973.723 363.916 973.267 374.266L1004.89 379.044C1007.62 370.144 1012.56 353.644 1016.83 337.242C1020.75 322.154 1019.77 304.318 1018.48 293.066Z" fill="#93AF45"/>
<path d="M1033.31 308.5C1030.59 301.81 1025.17 296.578 1018.48 293.066C1019.76 304.318 1020.75 322.154 1016.83 337.242C1012.56 353.644 1007.62 370.144 1004.89 379.042L1021.25 381.514C1021.25 381.514 1042.65 331.498 1033.31 308.5Z" fill="#7B8E36"/>
<path d="M906.141 227.938C902.577 228.306 918.561 247.258 920.161 246.028C921.759 244.798 924.711 241.478 921.391 238.156C918.069 234.836 909.831 227.558 906.141 227.938Z" fill="#3F4F21"/>
<path d="M903.571 267.681C900.939 267.931 912.741 280.825 913.921 279.987C915.103 279.151 917.281 276.891 914.829 274.633C912.379 272.375 906.295 267.423 903.571 267.681Z" fill="#3F4F21"/>
<path d="M946.333 264.305C944.043 262.981 946.175 280.331 947.623 280.335C949.069 280.339 952.155 279.763 951.469 276.501C950.783 273.237 948.701 265.675 946.333 264.305Z" fill="#3F4F21"/>
<path d="M966.807 321.426C964.791 320.26 966.667 335.53 967.939 335.532C969.213 335.536 971.931 335.03 971.327 332.158C970.723 329.288 968.891 322.632 966.807 321.426Z" fill="#3F4F21"/>
<path d="M905.395 327.952C902.917 328.872 917.641 338.292 918.565 337.18C919.491 336.068 921.015 333.324 918.065 331.772C915.113 330.22 907.961 327 905.395 327.952Z" fill="#3F4F21"/>
<path d="M1024.46 239.516C1028.03 239.884 1012.04 258.836 1010.44 257.606C1008.85 256.376 1005.89 253.056 1009.21 249.734C1012.54 246.414 1020.77 239.136 1024.46 239.516Z" fill="#3F4F21"/>
<path d="M1009.54 215.577C1012.17 215.827 1000.37 228.721 999.185 227.883C998.005 227.047 995.827 224.787 998.277 222.529C1000.73 220.271 1006.81 215.319 1009.54 215.577Z" fill="#3F4F21"/>
<path d="M1036.98 341.706C1038.75 341.874 1030.8 350.568 1030 350.002C1029.2 349.438 1027.73 347.916 1029.39 346.392C1031.04 344.87 1035.14 341.532 1036.98 341.706Z" fill="#3F4F21"/>
<path d="M981.169 243.135C983.773 242.677 975.815 258.241 974.455 257.749C973.095 257.255 970.393 255.655 972.159 252.827C973.923 249.999 978.473 243.609 981.169 243.135Z" fill="#3F4F21"/>
<path d="M1012.24 310.77C1014.84 310.312 1006.88 325.876 1005.53 325.384C1004.16 324.89 1001.46 323.29 1003.23 320.462C1004.99 317.632 1009.54 311.244 1012.24 310.77Z" fill="#3F4F21"/>
<path d="M994.761 398.408C974.715 398.604 975.271 409.72 960.977 409.534C946.683 409.35 941.301 403.966 922.737 401.74C915.841 400.91 908.999 402.552 903.117 404.936C908.007 426.93 915.979 456.692 919.829 459.818C925.767 464.644 953.055 473.926 972.547 473.926C992.039 473.926 1017.28 467.8 1020.44 463.16C1022.3 460.426 1029.63 433.118 1035 410.228C1033.05 410.62 1031.14 410.9 1029.29 411.02C1012.02 412.134 1014.81 398.212 994.761 398.408Z" fill="black"/>
<path d="M922.739 389.648C941.303 391.876 946.685 397.258 960.979 397.444C975.273 397.63 974.715 386.514 994.763 386.316C1014.81 386.12 1012.03 400.044 1029.29 398.93C1032.05 398.752 1034.95 398.23 1037.88 397.482C1040.04 387.436 1041.35 379.916 1040.86 378.622C1039.19 374.244 1000.05 364.034 972.547 364.034C931.895 364.034 899.967 376.286 899.039 381.484C898.823 382.698 899.525 387.376 900.791 393.86C907.153 390.956 914.905 388.708 922.739 389.648Z" fill="black"/>
<path d="M1029.29 398.928C1012.02 400.042 1014.81 386.12 994.761 386.316C974.715 386.512 975.271 397.63 960.979 397.444C946.685 397.258 941.301 391.874 922.739 389.646C914.905 388.706 907.153 390.956 900.789 393.858C901.433 397.154 902.223 400.908 903.119 404.936C908.999 402.552 915.841 400.912 922.739 401.74C941.301 403.968 946.685 409.35 960.979 409.536C975.271 409.72 974.715 398.604 994.761 398.408C1014.81 398.212 1012.02 412.134 1029.29 411.02C1031.14 410.9 1033.05 410.622 1035 410.228C1036.05 405.73 1037.03 401.418 1037.88 397.482C1034.95 398.228 1032.05 398.75 1029.29 398.928Z" fill="black"/>
<path d="M994.761 398.408C974.715 398.604 975.271 409.72 960.977 409.534C946.683 409.35 941.301 403.966 922.737 401.74C915.841 400.91 908.999 402.552 903.117 404.936C908.007 426.93 915.979 456.692 919.829 459.818C925.767 464.644 953.055 473.926 972.547 473.926C992.039 473.926 1017.28 467.8 1020.44 463.16C1022.3 460.426 1029.63 433.118 1035 410.228C1033.05 410.62 1031.14 410.9 1029.29 411.02C1012.02 412.134 1014.81 398.212 994.761 398.408Z" fill="#BA462B"/>
<path d="M922.739 389.648C941.303 391.876 946.685 397.258 960.979 397.444C975.273 397.63 974.715 386.514 994.763 386.316C1014.81 386.12 1012.03 400.044 1029.29 398.93C1032.05 398.752 1034.95 398.23 1037.88 397.482C1040.04 387.436 1041.35 379.916 1040.86 378.622C1039.19 374.244 1000.05 364.034 972.547 364.034C931.895 364.034 899.967 376.286 899.039 381.484C898.823 382.698 899.525 387.376 900.791 393.86C907.153 390.956 914.905 388.708 922.739 389.648Z" fill="#BA462B"/>
<path d="M1029.29 398.928C1012.02 400.042 1014.81 386.12 994.761 386.316C974.715 386.512 975.271 397.63 960.979 397.444C946.685 397.258 941.301 391.874 922.739 389.646C914.905 388.706 907.153 390.956 900.789 393.858C901.433 397.154 902.223 400.908 903.119 404.936C908.999 402.552 915.841 400.912 922.739 401.74C941.301 403.968 946.685 409.35 960.979 409.536C975.271 409.72 974.715 398.604 994.761 398.408C1014.81 398.212 1012.02 412.134 1029.29 411.02C1031.14 410.9 1033.05 410.622 1035 410.228C1036.05 405.73 1037.03 401.418 1037.88 397.482C1034.95 398.228 1032.05 398.75 1029.29 398.928Z" fill="#59332B"/>
<defs>
<filter id="filter0_b_20_2" x="-7" y="413" width="1523" height="311" filterUnits="userSpaceOnUse" color-interpolation-filters="sRGB">
<feFlood flood-opacity="0" result="BackgroundImageFix"/>
<feGaussianBlur in="BackgroundImageFix" stdDeviation="2"/>
<feComposite in2="SourceAlpha" operator="in" result="effect1_backgroundBlur_20_2"/>
<feBlend mode="normal" in="SourceGraphic" in2="effect1_backgroundBlur_20_2" result="shape"/>
</filter>
<filter id="filter1_f_20_2" x="470" y="452" width="146.5" height="35" filterUnits="userSpaceOnUse" color-interpolation-filters="sRGB">
<feFlood flood-opacity="0" result="BackgroundImageFix"/>
<feBlend mode="normal" in="SourceGraphic" in2="BackgroundImageFix" result="shape"/>
<feGaussianBlur stdDeviation="2" result="effect1_foregroundBlur_20_2"/>
</filter>
<filter id="filter2_f_20_2" x="668" y="456" width="136" height="35" filterUnits="userSpaceOnUse" color-interpolation-filters="sRGB">
<feFlood flood-opacity="0" result="BackgroundImageFix"/>
<feBlend mode="normal" in="SourceGraphic" in2="BackgroundImageFix" result="shape"/>
<feGaussianBlur stdDeviation="2" result="effect1_foregroundBlur_20_2"/>
</filter>
<filter id="filter3_f_20_2" x="1087" y="446.383" width="146.5" height="35" filterUnits="userSpaceOnUse" color-interpolation-filters="sRGB">
<feFlood flood-opacity="0" result="BackgroundImageFix"/>
<feBlend mode="normal" in="SourceGraphic" in2="BackgroundImageFix" result="shape"/>
<feGaussianBlur stdDeviation="2" result="effect1_foregroundBlur_20_2"/>
</filter>
<filter id="filter4_f_20_2" x="301" y="455" width="129" height="35" filterUnits="userSpaceOnUse" color-interpolation-filters="sRGB">
<feFlood flood-opacity="0" result="BackgroundImageFix"/>
<feBlend mode="normal" in="SourceGraphic" in2="BackgroundImageFix" result="shape"/>
<feGaussianBlur stdDeviation="2" result="effect1_foregroundBlur_20_2"/>
</filter>
<filter id="filter5_f_20_2" x="903.73" y="447.8" width="137" height="39.8243" filterUnits="userSpaceOnUse" color-interpolation-filters="sRGB">
<feFlood flood-opacity="0" result="BackgroundImageFix"/>
<feBlend mode="normal" in="SourceGraphic" in2="BackgroundImageFix" result="shape"/>
<feGaussianBlur stdDeviation="2" result="effect1_foregroundBlur_20_2"/>
</filter>
<radialGradient id="paint0_radial_20_2" cx="0" cy="0" r="1" gradientUnits="userSpaceOnUse" gradientTransform="translate(559.5 463.714) rotate(86.7428) scale(26.3998 105.822)">
<stop stop-color="#161616"/>
<stop offset="0.915" stop-color="#818181" stop-opacity="0"/>
</radialGradient>
<radialGradient id="paint1_radial_20_2" cx="0" cy="0" r="1" gradientUnits="userSpaceOnUse" gradientTransform="translate(748.685 467.714) rotate(86.2453) scale(26.4138 121.964)">
<stop stop-color="#161616"/>
<stop offset="0.915" stop-color="#818181" stop-opacity="0"/>
</radialGradient>
<radialGradient id="paint2_radial_20_2" cx="0" cy="0" r="1" gradientUnits="userSpaceOnUse" gradientTransform="translate(1182.5 462.714) rotate(86.7428) scale(26.3998 105.822)">
<stop stop-color="#161616"/>
<stop offset="0.915" stop-color="#818181" stop-opacity="0"/>
</radialGradient>
<radialGradient id="paint3_radial_20_2" cx="0" cy="0" r="1" gradientUnits="userSpaceOnUse" gradientTransform="translate(377.491 466.714) rotate(86.4501) scale(26.4078 115.32)">
<stop stop-color="#161616"/>
<stop offset="0.915" stop-color="#818181" stop-opacity="0"/>
</radialGradient>
<radialGradient id="paint4_radial_20_2" cx="0" cy="0" r="1" gradientUnits="userSpaceOnUse" gradientTransform="translate(972.685 467.714) rotate(86.2453) scale(26.4138 121.964)">
<stop stop-color="#161616"/>
<stop offset="0.915" stop-color="#818181" stop-opacity="0"/>
</radialGradient>
</defs>
</svg>
